<svg width="164" height="100" viewBox="0 0 164 100" fill="none" xmlns="http://www.w3.org/2000/svg">
<path d="M139.446 71.7817C132.484 71.7202 126.704 69.0847 121.989 63.9718C117.054 58.6218 115.38 52.2088 116.067 45.1984C117.125 34.393 126.712 23.772 140.671 24.3869C153.51 24.9492 161.758 34.9289 162.992 44.2233C164.014 51.8838 162.154 58.9996 156.541 64.701C151.88 69.4449 146.161 71.8431 139.446 71.7729V71.7817ZM139.56 42.194C136.837 41.8338 134.899 44.3639 134.837 47.1399C134.793 49.178 137.41 51.8047 139.534 51.6729C141.799 51.5324 144.178 50.1971 144.054 46.5074C143.966 43.8368 142.319 42.1852 139.56 42.1852V42.194Z" fill="#CF2C37"/>
<path d="M16.323 25.1074C19.2926 25.1074 22.2624 25.1249 25.232 25.1074C27.673 25.0898 30.1139 25.1425 32.5636 25.0195C34.467 24.9229 36.3793 25.0986 38.2827 25.1249C38.9084 25.1249 38.8379 25.5378 38.8379 25.9332C38.8379 28.3402 38.8379 30.7473 38.8379 33.1544C38.8379 34.0065 38.785 34.8674 38.8643 35.7196C38.9436 36.5629 38.5382 36.7035 37.8245 36.6859C36.203 36.6508 34.5816 36.6595 32.969 36.6508C29.2679 36.6508 25.5669 36.6683 21.857 36.6332C21.152 36.6332 20.9493 36.8353 20.9758 37.5205C21.0286 38.8031 21.0198 40.0945 20.9758 41.3771C20.9582 42.0096 21.0463 42.2907 21.8218 42.2819C25.3202 42.2468 28.8273 42.3258 32.3257 42.2819C33.2246 42.2731 33.4184 42.5455 33.4096 43.3976C33.3567 46.4636 33.3567 49.5295 33.4096 52.5954C33.4272 53.5266 33.251 53.9132 32.176 53.8868C28.7745 53.8078 25.3642 53.8868 21.9627 53.8341C21.1608 53.8253 20.9405 54.0713 20.9846 54.8356C21.0551 55.9513 21.0022 57.0758 21.0463 58.1914C21.0815 59.0084 21.4075 59.4477 22.3857 59.4389C26.2894 59.395 30.1844 59.5092 34.0882 59.4389C35.454 59.4125 36.8111 59.5882 38.177 59.474C38.6969 59.4301 38.8643 59.6409 38.8555 60.1593C38.8378 63.5502 38.829 66.9412 38.8555 70.341C38.8555 71.1492 38.3796 71.0438 37.8862 71.0438C32.4315 71.0438 26.9768 71.0438 21.5221 71.0438C19.372 71.0438 17.2218 71.0438 15.0805 71.0438C10.6833 71.0526 6.286 71.0701 1.88878 71.0789C0.602212 71.0789 0.602246 71.0789 0.602246 69.7963C0.602246 65.8783 0.602221 61.9514 0.575784 58.0333C0.55816 55.8107 0.33789 53.5881 0.443635 51.3831C0.531756 49.4856 0.593434 47.588 0.602246 45.6905C0.602246 40.5074 0.628665 35.3243 0.584605 30.1411C0.575793 28.7795 0.64629 27.4266 0.584605 26.0737C0.549357 25.3094 0.822555 25.1425 1.54515 25.1513C6.26842 25.1952 11.0005 25.1952 15.7238 25.204C15.9264 25.204 16.1203 25.204 16.323 25.204C16.323 25.1864 16.323 25.1689 16.323 25.1425V25.1074Z" fill="#CF2C37"/>
<path d="M44.9537 48.0273C44.9537 40.7534 44.9713 33.4707 44.936 26.1968C44.936 25.2743 45.174 25.0811 46.1081 25.0899C52.1179 25.1514 58.1365 25.1426 64.1464 25.1074C65.0981 25.1074 65.3536 25.3271 65.3536 26.2934C65.336 30.8352 65.4418 35.3858 65.4418 39.9276C65.4418 46.0771 65.3889 52.2353 65.3096 58.3848C65.3008 59.2281 65.4858 59.5092 66.3934 59.4917C70.9052 59.439 75.4082 59.4741 79.92 59.4565C80.6338 59.4565 81.3388 59.4829 82.0702 59.3248C82.5372 59.2194 83.2069 59.3248 83.1981 60.2472C83.154 63.603 83.1717 66.9677 83.2157 70.3235C83.2245 71.1317 82.7487 71.0351 82.2552 71.0263C77.8932 71.0263 73.5312 71.0263 69.1693 71.0263C61.4675 71.0263 53.7657 71.0175 46.064 71.0439C45.218 71.0439 44.936 70.8594 44.9449 69.9633C44.9889 64.7626 44.9624 59.5532 44.9624 54.3437C44.9624 52.2353 44.9624 50.1269 44.9624 48.0273H44.9537Z" fill="#CF2C37"/>
<path d="M99.5437 40.4459C96.4419 40.4459 93.3312 40.4284 90.2293 40.4635C89.5244 40.4635 89.3394 40.2615 89.3394 39.5762C89.3658 35.0344 89.3658 30.4926 89.3394 25.9508C89.3394 25.2304 89.5949 25.0811 90.2558 25.0811C96.4947 25.1074 102.734 25.1074 108.973 25.0811C109.589 25.0811 109.757 25.2656 109.748 25.8717C109.722 30.4487 109.722 35.0256 109.748 39.6026C109.748 40.3229 109.51 40.4723 108.84 40.4635C105.739 40.4284 102.628 40.4459 99.5261 40.4547L99.5437 40.4459Z" fill="#199046"/>
<path d="M99.5001 71.0263C96.4247 71.0263 93.3493 71.0087 90.2738 71.0438C89.5777 71.0438 89.375 70.833 89.375 70.1478C89.4014 65.6675 89.4014 61.1872 89.375 56.7156C89.375 56.048 89.5424 55.8108 90.2474 55.8195C96.4952 55.8459 102.743 55.8459 108.991 55.8195C109.572 55.8195 109.801 55.9425 109.801 56.5751C109.757 61.152 109.74 65.729 109.757 70.3059C109.757 70.9824 109.458 71.0438 108.92 71.0351C105.783 71.0175 102.637 71.0351 99.5001 71.0351V71.0263Z" fill="#CF2C37"/>
<path d="M100.734 4.32228C100.575 4.52433 100.187 4.36619 100.099 4.77908C102.813 5.42038 104.946 6.9314 106.462 9.32091C106.303 8.1613 105.281 7.5112 104.787 6.53607C107.669 5.92113 109.625 7.80112 109.713 10.5596C109.837 14.3635 108.603 17.5787 105.378 19.8101C103.051 21.4178 100.355 22.0152 97.6761 21.3299C93.9133 20.3724 91.252 17.9389 89.9126 14.2229C89.2781 12.4483 88.8816 10.6211 89.4985 8.75866C90.1418 6.8084 91.067 5.01629 92.8382 3.80397C94.68 2.53894 98.8217 2.81128 100.734 4.33107V4.32228Z" fill="#CF2C37"/>
<path d="M3.58938 93.788C3.58938 95.6592 3.5629 97.3722 3.59815 99.0853C3.61577 99.7969 3.31621 99.9726 2.6553 99.999C1.88865 100.025 2.00316 99.5509 2.00316 99.0941C2.00316 96.7573 2.02964 94.4205 1.9944 92.0837C1.96796 90.1686 1.87098 88.2447 2.00316 86.3296C2.04722 85.7674 1.89743 85.4248 1.24534 85.539C0.602056 85.6619 0.584459 85.2666 0.558023 84.7834C0.531587 84.2563 0.725416 84.0543 1.23652 84.1246C2.04723 84.2388 3.04303 83.738 3.52769 84.9328C3.69512 85.3457 4.07404 84.9679 4.24147 84.801C6.12725 82.9738 11.2471 83.4306 11.9432 87.1378C12.1195 88.069 12.5512 88.9475 12.4896 89.9402C12.3486 92.3033 11.2559 94.1306 9.26436 95.3517C7.74869 96.2741 4.99049 95.4923 3.58056 93.7968L3.58938 93.788ZM10.6919 89.6152C10.8329 89.0441 10.5421 88.4116 10.3218 87.7615C9.86354 86.4174 8.73561 85.3984 7.58123 85.3369C5.76594 85.2315 4.2943 85.9079 3.87132 87.4277C3.33378 89.3428 3.28095 91.3282 4.6292 93.0501C5.59853 94.2887 7.18471 94.4469 8.60346 93.7177C10.2866 92.8568 10.6302 91.4161 10.7007 89.6239L10.6919 89.6152Z" fill="#199046"/>
<path d="M161.767 90.3794C161.767 91.3018 161.775 92.2242 161.767 93.1466C161.767 93.7264 161.899 94.1306 162.595 94.0251C163.15 93.9373 163.247 94.236 163.247 94.7191C163.247 95.1847 163.088 95.3692 162.612 95.3604C161.634 95.3341 160.586 95.5186 160.101 94.3062C159.986 94.0251 159.845 94.069 159.317 94.5083C157.642 95.8875 155.73 96.0369 153.968 94.8685C152.937 94.1833 152.382 93.1818 152.584 91.9431C152.761 90.8538 153.113 89.8698 154.32 89.3427C155.951 88.6312 157.642 88.3588 159.378 88.35C160.057 88.35 160.233 88.1217 160.163 87.4891C160.066 86.6282 159.898 85.7409 159.035 85.4422C157.933 85.0645 156.744 84.8888 155.642 85.5477C155.484 85.6443 155.281 85.8551 155.29 86.0045C155.387 87.1641 154.356 86.5931 153.906 86.883C153.765 86.9796 153.589 86.6546 153.545 86.3998C153.377 85.4071 153.88 84.5462 154.92 84.1684C156.761 83.5184 158.638 83.571 160.348 84.432C161.449 84.9854 161.546 86.3119 161.696 87.4188C161.828 88.3852 161.722 89.3955 161.722 90.3794C161.722 90.3794 161.74 90.3794 161.749 90.3794H161.767ZM158.823 89.6414C158.33 89.6678 157.836 89.6678 157.343 89.7381C156.832 89.8171 156.321 89.9313 155.827 90.0895C154.664 90.476 153.924 91.6356 154.206 92.558C154.585 93.7967 156.083 94.5961 157.29 94.2535C158.806 93.8318 159.555 92.7952 159.969 91.3369C160.409 89.7556 160.383 89.6326 158.823 89.6414Z" fill="#199046"/>
<path d="M107.854 93.498C106.779 95.0705 105.413 95.6942 103.694 95.5975C102.188 95.5097 100.681 94.4994 100.231 92.76C99.9493 91.6619 100.76 90.0543 102.047 89.3515C103.219 88.7102 104.496 88.4466 105.845 88.4817C107.836 88.5345 108.118 88.1567 107.501 86.2328C107.378 85.8287 107.087 85.5212 106.708 85.3983C105.695 85.0732 104.664 84.9941 103.615 85.2928C103.095 85.4422 102.725 85.6793 102.769 86.3119C102.822 86.9619 102.337 86.9268 101.897 86.9356C101.439 86.9356 101.183 86.8214 101.139 86.2767C101.077 85.451 101.456 84.8448 102.029 84.4143C103.157 83.571 107.378 83.5007 108.471 84.9063C109.308 85.9868 109.396 87.1904 109.457 88.4027C109.546 89.9752 109.484 91.5565 109.466 93.1378C109.466 93.7352 109.625 94.1041 110.303 94.0251C110.709 93.9811 110.929 94.1041 110.894 94.5609C110.867 94.9211 110.947 95.3516 110.436 95.4043C108.973 95.5448 107.977 95.6239 107.827 93.498H107.854ZM104.435 94.2183C106.329 94.2183 108.056 92.0397 107.739 90.0894C107.678 89.7117 107.492 89.7029 107.21 89.6853C106.091 89.6238 104.981 89.7117 103.897 89.9576C102.47 90.2915 101.817 91.2314 101.976 92.5843C102.091 93.5594 103.086 94.2183 104.435 94.2271V94.2183Z" fill="#199046"/>
<path d="M75.2846 93.8495C74.1919 95.0882 72.9494 95.7383 71.2927 95.6329C69.7153 95.5275 68.0675 94.2361 67.8384 92.7514C67.6005 91.1877 68.6667 89.5449 70.2088 89.0003C71.6011 88.5171 73.0287 88.3941 74.4739 88.4907C75.2846 88.5434 75.4432 88.1393 75.3727 87.4805C75.1524 85.3809 72.5264 84.2388 70.7375 85.4687C70.4908 85.6356 70.2353 85.8553 70.2441 86.1627C70.2441 87.0237 69.5039 86.8128 69.1162 86.8567C68.6667 86.9007 68.8518 86.356 68.8342 86.0661C68.7548 84.7747 68.9839 84.5112 70.2352 84.1071C71.8479 83.5887 73.4605 83.6502 75.029 84.1861C76.0688 84.5463 76.5888 85.4336 76.8091 86.5053C77.0999 87.9021 76.9941 89.3077 77.0117 90.7133C77.0117 91.5391 77.0206 92.3561 77.0117 93.1819C77.0117 93.7178 77.1263 94.1043 77.7872 94.0165C78.3247 93.9374 78.4569 94.1922 78.4569 94.6929C78.4569 95.2551 78.175 95.3518 77.7168 95.3254C77.4171 95.3078 77.1263 95.3254 76.8267 95.3254C75.9279 95.2903 75.2758 94.9828 75.2846 93.8495ZM73.7425 89.6855C72.8613 89.5801 71.8919 89.8085 70.9667 90.1159C69.8475 90.4849 69.1954 91.6709 69.4686 92.6724C69.7242 93.6211 71.3368 94.6051 72.2797 94.3766C73.8218 93.9989 74.7911 93.0325 75.1877 91.504C75.6635 89.6943 75.6459 89.6855 73.7425 89.6855Z" fill="#199046"/>
<path d="M48.0725 89.747C46.8476 89.747 45.6315 89.7557 44.4066 89.747C43.8867 89.747 43.7281 89.9314 43.7634 90.4585C43.9484 93.3136 47.5174 95.1058 49.5706 93.832C49.9759 93.5772 50.5046 93.5069 50.91 93.2522C51.3418 92.9798 51.5885 92.8656 51.8969 93.4191C52.1965 93.955 52.0556 94.1922 51.6062 94.5172C49.5265 96.037 47.253 96.0458 45.1028 94.9916C43.5167 94.2097 42.3799 92.769 42.1244 90.8978C41.7014 87.8406 42.283 85.3721 45.6404 84.1949C49.3238 82.9035 52.4873 84.7308 52.3904 89.1584C52.3816 89.6591 52.1789 89.7645 51.7383 89.7558C50.5134 89.7382 49.2974 89.7558 48.0725 89.7558V89.747ZM47.2442 88.4907C48.2311 88.4907 49.2181 88.4732 50.205 88.4907C50.7778 88.5083 50.8747 88.2535 50.7602 87.7704C50.4606 86.4702 49.2533 84.8626 47.1472 85.0998C45.7197 85.2579 44.1776 86.479 43.8956 87.9109C43.8075 88.3765 43.9484 88.4907 44.3802 88.4819C45.3319 88.4644 46.2837 88.4819 47.2442 88.4819V88.4907Z" fill="#199046"/>
<path d="M131.074 95.6066C127.963 95.8877 125.196 92.6197 125.152 89.7558C125.099 86.4 127.875 83.7381 131.091 83.7645C134.96 83.7908 137.401 86.4351 137.119 90.2566C136.89 93.3928 134.149 95.7559 131.074 95.6066ZM135.498 89.5186C135.744 87.4717 134.096 85.2228 131.162 85.1789C128.342 85.1349 126.756 87.7177 126.738 89.6416C126.721 92.0311 129.065 94.2888 131.1 94.2449C133.559 94.1922 135.498 92.1629 135.498 89.5186Z" fill="#199046"/>
<path d="M38.1506 85.4423C36.4146 85.4423 34.8285 85.4423 33.2423 85.4423C32.7488 85.4423 32.4845 85.6005 32.5461 86.1275C32.6255 86.8216 32.2289 86.9358 31.6385 86.927C30.9688 86.927 30.9071 86.5404 30.9071 86.0221C30.8895 84.1773 30.96 84.0455 32.8898 84.0016C35.1281 83.9577 37.3751 83.984 39.6134 84.0016C40.3272 84.0016 40.5651 84.678 40.054 85.3808C39.3402 86.3735 38.5648 87.3223 37.7981 88.2711C36.2824 90.1335 34.7404 91.9783 33.1013 93.9637C35.0488 93.9637 36.8464 93.9637 38.6353 93.9637C39.0935 93.9637 39.3226 93.7529 39.2521 93.2961C39.1376 92.5406 39.6487 92.6635 40.1069 92.6284C40.759 92.5757 40.662 92.9886 40.6709 93.3839C40.7061 95.2024 40.5739 95.3429 38.741 95.3517C36.397 95.3517 34.053 95.3254 31.7178 95.3781C30.9512 95.3957 30.8895 95.0267 31.004 94.482C31.1274 93.8847 31.5415 93.4454 31.9116 92.9886C33.9649 90.5024 36.0181 88.0163 38.1506 85.4423Z" fill="#199046"/>
<path d="M21.7958 93.9638C23.7081 93.9638 25.4176 93.955 27.136 93.9638C27.6999 93.9638 28.0348 93.7969 27.9731 93.1731C27.9114 92.6109 28.2199 92.5318 28.7045 92.5494C29.2156 92.5669 29.4624 92.6812 29.4712 93.2697C29.5241 94.9916 29.198 95.343 27.4444 95.343C25.1973 95.343 22.9502 95.343 20.712 95.3342C20.3771 95.3342 19.9189 95.5275 19.725 95.1234C19.5223 94.7193 19.6192 94.1922 19.91 93.9111C20.9058 92.9886 21.4962 91.7587 22.4391 90.7924C24.0253 89.1584 25.1356 87.1203 26.9773 85.3897C25.0828 85.3897 23.4437 85.3897 21.8135 85.3897C21.4081 85.3897 21.1702 85.6005 21.2319 86.0046C21.364 86.927 20.571 86.8216 20.148 86.8655C19.4959 86.9358 19.6545 86.3209 19.6457 85.9256C19.6193 84.2037 19.8307 84.0016 21.5579 84.0016C23.7345 84.0016 25.9111 84.0016 28.0965 84.0016C29.0746 84.0016 29.2773 84.3882 28.7926 85.2842C28.1934 86.3736 27.2593 87.2081 26.5103 88.1833C25.0387 90.0984 23.4702 91.952 21.8223 93.9638H21.7958Z" fill="#199046"/>
<path d="M88.3355 82.4818C88.3884 84.0807 88.3883 84.0895 90.2477 83.9753C90.8117 83.9402 91.3228 83.8347 91.2346 84.7044C91.1906 85.1613 91.0584 85.3897 90.5914 85.3106C89.9217 85.1964 89.3136 85.5917 88.6527 85.5039C88.2474 85.4512 88.3355 85.7323 88.3355 85.9343C88.3355 87.8407 88.3002 89.7558 88.3884 91.6533C88.4589 93.1116 89.2784 93.8847 90.7588 94.0165C91.3492 94.0692 91.2523 94.3854 91.2611 94.7368C91.2699 95.1234 91.2611 95.4045 90.7235 95.4484C88.8289 95.5978 87.0842 94.2624 86.8639 92.3649C86.7053 90.9505 86.3704 89.5449 86.7405 88.113C86.9344 87.3663 86.5378 86.6371 86.5202 85.8904C86.5114 85.416 86.1325 85.5302 85.8593 85.5302C85.2513 85.5302 85.0662 85.2491 85.075 84.6693C85.075 84.028 85.4628 83.9665 85.921 84.0104C86.6612 84.0983 86.8374 83.7293 86.7757 83.088C86.7405 82.6927 86.811 82.2886 86.7405 81.9108C86.5995 81.1641 86.8551 80.9181 87.6217 80.9445C88.1945 80.9708 88.3972 81.1378 88.3267 81.6912C88.3002 81.9548 88.3267 82.2183 88.3267 82.4818H88.3355Z" fill="#199046"/>
<path d="M112.851 89.1848C112.851 88.1657 112.816 87.1467 112.868 86.1276C112.904 85.539 112.772 85.2667 112.128 85.3194C111.785 85.3458 111.309 85.5127 111.282 84.8362C111.256 84.274 111.432 84.1159 111.996 84.1071C112.613 84.1071 112.983 83.7645 112.877 83.0529C112.824 82.6664 112.904 82.2623 112.886 81.8669C112.869 81.3398 112.842 80.9357 113.626 80.9445C114.367 80.9445 114.508 81.2168 114.472 81.8669C114.437 82.5785 114.261 83.5009 114.631 83.9577C115.027 84.4497 115.988 84.1159 116.702 84.1159C117.195 84.1159 117.301 84.3267 117.327 84.7572C117.363 85.2755 117.098 85.3809 116.675 85.3721C116.64 85.3721 116.605 85.3721 116.578 85.3721C115.838 85.46 114.807 84.9768 114.446 85.5391C114.199 85.9256 114.437 86.9007 114.446 87.6123C114.472 88.8949 114.508 90.1863 114.446 91.4601C114.384 92.8305 115.583 94.1658 116.922 94.0341C117.504 93.9726 117.468 94.324 117.46 94.7017C117.46 95.0707 117.495 95.387 116.94 95.4397C114.772 95.6242 112.648 93.8935 112.86 91.8554C112.957 90.9769 112.877 90.0809 112.877 89.1936C112.868 89.1936 112.851 89.1936 112.842 89.1936L112.851 89.1848Z" fill="#199046"/>
<path d="M119.627 89.2461C119.627 88.227 119.601 87.1992 119.636 86.1801C119.663 85.5739 119.539 85.2313 118.834 85.3192C118.394 85.3807 118.006 85.3807 117.997 84.7042C117.997 83.9927 118.429 84.1069 118.843 84.1244C119.389 84.1508 119.636 83.8872 119.636 83.3601C119.636 82.7979 119.671 82.2357 119.636 81.6822C119.592 81.12 119.795 80.9531 120.359 80.9443C120.958 80.9355 121.09 81.1639 121.055 81.6998C121.037 81.9897 121.143 82.2796 121.161 82.5695C121.231 84.1244 121.222 84.1244 122.747 84.1244C122.976 84.1244 123.214 84.142 123.443 84.1244C123.848 84.0893 124.042 84.2123 124.033 84.6691C124.025 85.0908 123.972 85.3192 123.452 85.3456C122.72 85.3895 121.725 84.9326 121.328 85.5827C120.984 86.1362 121.222 87.0586 121.222 87.8141C121.222 89.0352 121.266 90.2563 121.222 91.4687C121.178 92.7249 122.139 93.9899 123.628 94.0163C124.218 94.0251 124.227 94.2974 124.245 94.7367C124.262 95.2374 124.104 95.4131 123.575 95.4306C121.266 95.5185 119.698 94.0514 119.663 91.7146C119.654 90.8888 119.663 90.0631 119.663 89.2461H119.645H119.627Z" fill="#199046"/>
<path d="M93.8428 90.4936C93.8428 89.1144 93.8251 87.7263 93.8428 86.3471C93.8516 85.8112 93.7811 85.4335 93.1113 85.5301C92.4857 85.618 92.2301 85.3544 92.2213 84.6955C92.2125 83.9488 92.6972 84.1509 93.0849 84.1421C93.5167 84.1245 93.9397 84.1421 94.3715 84.1421C94.8649 84.1421 95.191 84.3529 95.2438 84.88C95.3408 85.7761 95.7902 85.6707 96.2661 85.1875C96.9799 84.4583 97.7729 83.9225 98.8392 83.9225C99.1829 83.9225 99.4737 84.0015 99.3944 84.4056C99.3327 84.7307 99.7028 85.2226 99.0507 85.3544C96.548 85.8464 95.5171 88.0075 95.4466 90.3267C95.4025 91.7411 95.4025 93.1554 95.4377 94.5698C95.4554 95.299 95.1381 95.4307 94.486 95.4571C93.7106 95.4834 93.8428 95.0003 93.8428 94.5522C93.8428 93.1994 93.8428 91.8553 93.8428 90.5024V90.4936Z" fill="#199046"/>
<path d="M141.499 86.4701C142.186 85.0909 143.129 84.1421 144.645 83.9489C144.988 83.9049 145.57 83.6414 145.632 84.3705C145.676 84.8888 145.728 85.2754 144.927 85.4335C142.812 85.8464 141.878 87.4013 141.622 89.4043C141.419 91.0383 141.428 92.6986 141.587 94.3326C141.701 95.4571 140.873 95.3253 140.362 95.378C139.701 95.4483 139.921 94.7719 139.921 94.4117C139.904 91.785 139.921 89.1495 139.948 86.5228C139.948 85.9079 139.895 85.4159 139.049 85.5301C138.309 85.6268 138.564 85.0118 138.511 84.6428C138.458 84.2212 138.547 83.9225 139.084 83.984C139.41 84.0191 139.745 83.984 140.071 84.0103C141.111 84.0806 141.472 84.4671 141.481 85.495C141.481 85.82 141.481 86.1451 141.481 86.4701H141.499Z" fill="#199046"/>
<path d="M56.6818 86.6634C57.0166 86.1364 57.2017 85.8025 57.4308 85.4863C58.1269 84.5287 59.0346 83.9313 60.2595 83.9138C60.6737 83.9138 60.982 83.9752 60.9468 84.5023C60.9116 84.9504 61.0526 85.4248 60.3564 85.5477C58.1886 85.9255 57.2986 86.8391 56.9285 89.0617C56.6377 90.8275 56.8404 92.6108 56.7875 94.3942C56.7787 94.728 56.9109 95.0882 56.435 95.299C55.6596 95.6504 55.2189 95.4572 55.2189 94.6138C55.2101 91.9168 55.1925 89.2111 55.2189 86.5141C55.2189 85.8552 55.1661 85.3984 54.3377 85.5302C53.6945 85.6268 53.8002 85.1524 53.7738 84.7659C53.7385 84.3091 53.8971 84.1509 54.3818 84.1246C56.5231 84.0016 56.5584 84.0192 56.6906 86.6722L56.6818 86.6634Z" fill="#199046"/>
<path d="M150.099 89.2462C150.099 90.4321 150.179 91.6181 150.073 92.7953C150.011 93.5156 150.267 93.8934 150.884 93.9461C151.597 94.0076 151.536 94.4469 151.509 94.9037C151.474 95.545 150.998 95.3517 150.628 95.3517C148.689 95.3429 148.496 95.176 148.487 93.296C148.469 90.9944 148.469 88.6927 148.487 86.3911C148.487 85.8113 148.407 85.4071 147.694 85.5213C147.033 85.6268 147.059 85.1963 147.042 84.7395C147.015 84.1861 147.191 83.9401 147.764 83.9928C148.125 84.0279 148.487 83.9928 148.857 84.0191C149.641 84.0718 150.064 84.4847 150.064 85.293C150.064 86.6107 150.064 87.9284 150.064 89.2462C150.082 89.2462 150.099 89.2462 150.117 89.2462H150.099Z" fill="#199046"/>
<path d="M65.2921 89.2462C65.2921 90.5639 65.2921 91.8816 65.2921 93.1994C65.2921 93.7441 65.4331 94.113 66.0764 94.0252C66.561 93.9549 66.6932 94.1745 66.6844 94.6401C66.6668 95.0969 66.5963 95.3692 66.0499 95.4307C64.2699 95.6328 63.7236 95.1584 63.7236 93.3399C63.7236 91.0031 63.7059 88.6664 63.7236 86.3296C63.7236 85.7761 63.6354 85.4511 62.9657 85.5389C62.34 85.6268 62.0933 85.3193 62.0845 84.678C62.0845 83.9313 62.6044 84.1333 62.9745 84.1333C65.0189 84.1158 65.3185 83.7556 65.3097 86.4789C65.3097 87.4013 65.3097 88.3237 65.3097 89.2462H65.2921Z" fill="#199046"/>
<path d="M15.1062 90.0191C15.1062 88.7716 15.0974 87.5154 15.1062 86.2679C15.1062 85.7672 15.0358 85.4158 14.4013 85.53C13.7316 85.653 13.6875 85.2664 13.6435 84.7305C13.5994 84.1068 13.9431 84.142 14.3661 84.1244C16.5162 84.019 16.6836 84.1683 16.6836 86.3031C16.6836 88.5432 16.6925 90.7834 16.6836 93.0235C16.6836 93.656 16.7453 94.1656 17.5824 94.0426C17.8997 93.9987 18.1112 94.1216 18.0671 94.473C18.0319 94.7629 18.2258 95.1056 17.7411 95.2725C16.4193 95.7205 15.0093 95.4482 15.1062 93.6824C15.1767 92.4701 15.1151 91.249 15.1151 90.0279L15.1062 90.0191Z" fill="#199046"/>
<path d="M110.33 2.34559C108.515 2.81119 106.497 2.62671 104.788 4.02352H106.585C106.603 4.06744 106.621 4.12015 106.629 4.16408C106.418 4.26071 106.206 4.36613 105.872 4.51547C107.123 5.06892 108.039 5.92106 108.921 6.82591C108.868 6.89619 108.824 6.96646 108.771 7.03674C108.365 6.75562 107.942 6.49208 107.555 6.1934C106.55 5.42032 105.493 5.04256 104.285 5.74536C104.021 5.8947 103.783 5.79807 103.563 5.61359C101.994 4.26949 100.205 3.34706 98.2315 2.74969C98.1081 2.71455 98.0024 2.62671 97.9055 2.53886C97.8702 2.50372 97.879 2.42467 97.835 2.22261C98.8395 2.24897 99.7296 2.64427 100.628 2.89025C101.748 3.18894 101.748 3.24166 101.571 2.10841C101.466 1.42318 101.307 0.74672 101.157 0C101.677 0.149344 101.686 0.518312 101.792 0.85214C101.977 1.44073 102.179 2.01176 102.382 2.59157C102.831 3.88295 103.131 3.95323 104.294 3.27679C106.154 2.19624 108.172 1.90634 110.322 2.34559H110.33Z" fill="#199046"/>
<path d="M63.5118 80.4701C63.2915 79.6091 63.8114 79.6092 64.4811 79.5565C65.3975 79.4862 65.1508 80.066 65.2037 80.5491C65.2742 81.2256 65.1067 81.5331 64.3136 81.5331C63.4677 81.5331 63.4236 81.1114 63.5029 80.4701H63.5118Z" fill="#199046"/>
<path d="M16.5787 80.6194C16.6845 81.2167 16.614 81.6033 15.8649 81.5506C15.2481 81.5066 14.781 81.4979 14.8604 80.6457C14.922 80.0308 14.8075 79.5476 15.7416 79.5476C16.6756 79.5476 16.658 80.022 16.5787 80.6194Z" fill="#199046"/>
<path d="M149.941 80.549C150.029 81.1552 149.95 81.5329 149.157 81.5329C148.284 81.5329 148.443 81.0146 148.417 80.4963C148.381 79.9077 148.425 79.53 149.218 79.53C150.1 79.53 149.967 80.0307 149.941 80.549Z" fill="#199046"/>
<path d="M99.3599 55.6702C96.2845 55.6702 93.2091 55.6526 90.1337 55.6877C89.4375 55.6877 89.2349 55.4769 89.2349 54.7917C89.2613 50.3113 89.2613 45.831 89.2349 41.3595C89.2349 40.6918 89.4023 40.4546 90.1073 40.4634C96.355 40.4898 102.603 40.4898 108.851 40.4634C109.432 40.4634 109.661 40.5864 109.661 41.2189C109.617 45.7959 109.6 50.3728 109.617 54.9498C109.617 55.6262 109.318 55.6877 108.78 55.6789C105.643 55.6613 102.497 55.6789 99.3599 55.6789V55.6702Z" fill="white"/>
</svg>
