<svg width="243" height="100" viewBox="0 0 243 100" fill="none" xmlns="http://www.w3.org/2000/svg">
<path d="M121.98 97.2405C145.618 97.333 169.21 96.4191 192.732 94.0822C196.956 93.6658 198.279 91.7338 197.443 87.5575C196.573 83.1615 195.633 78.777 194.856 74.3578C194.728 73.629 195.32 72.7729 195.587 71.9631C196.097 72.6341 196.886 73.2356 197.06 73.9876C198.105 78.4299 199.01 82.907 199.938 87.3725C201.018 92.5552 198.453 96.0836 193.173 96.5348C161.841 99.1724 130.486 100.908 99.0387 99.4963C83.396 98.7906 67.765 97.6338 52.134 96.6736C51.3333 96.6273 50.5326 96.5579 49.7319 96.4306C45.241 95.7134 42.8157 92.4742 43.6512 88.0203C44.5447 83.2193 45.5775 78.4415 46.6799 73.6868C46.8308 73.039 47.7011 72.5531 48.2465 71.9978C48.4786 72.7382 49.024 73.5249 48.8963 74.2074C48.1188 78.5456 47.2485 82.8607 46.297 87.1642C45.299 91.6991 46.5523 93.8277 51.2288 94.1169C69.993 95.2622 88.7572 96.2802 107.521 97.2173C112.326 97.4602 117.165 97.252 121.98 97.252V97.2405Z" fill="white"/>
<path d="M119.8 2.36633C98.7382 2.23907 75.5528 3.45378 52.4137 5.44358C51.6942 5.50142 50.9748 5.59397 50.2553 5.69809C46.9945 6.19554 45.4859 8.1969 46.1009 11.4477C46.9713 16.0057 48.004 20.5406 48.8279 25.1102C48.9788 25.92 48.4334 26.857 48.2129 27.7362C47.6443 27.019 46.7508 26.3827 46.5652 25.5845C45.5672 21.3851 44.7897 17.1278 43.8729 12.9053C42.6081 7.08629 45.103 3.84712 50.9864 3.24555C81.4942 0.156738 112.095 -0.467987 142.707 0.29554C159.8 0.723578 176.859 2.25063 193.929 3.40749C198.234 3.69671 200.856 7.29454 200.067 11.5055C199.116 16.6188 198.048 21.709 196.922 26.7876C196.783 27.4007 196.006 27.8635 195.53 28.3956C195.24 27.7015 194.613 26.9496 194.718 26.3133C195.449 21.9751 196.273 17.6484 197.201 13.3449C198.419 7.6763 197.271 5.99884 191.526 5.48982C168.387 3.44218 145.214 2.28535 119.812 2.36633H119.8Z" fill="white"/>
<path d="M163.675 68.6774C161.528 68.2494 159.451 67.9717 157.49 67.3586C156.829 67.1504 155.993 66.0514 156.005 65.3688C156.04 60.3365 156.388 55.3157 156.376 50.2834C156.376 45.413 156.028 40.5542 155.958 35.6838C155.958 35.0822 156.585 34.1568 157.154 33.9254C161.424 32.2017 165.776 32.1323 170.023 33.9254C170.649 34.1915 171.241 35.3599 171.241 36.1118C171.311 45.7832 171.311 55.4545 171.206 65.1143C171.206 65.901 170.417 67.1272 169.733 67.3586C167.795 68.018 165.706 68.2725 163.675 68.6774ZM164.685 50.7577C164.685 46.674 164.731 42.5903 164.638 38.5181C164.627 37.8356 163.965 37.153 163.606 36.482C163.269 37.1183 162.631 37.743 162.631 38.3793C162.573 46.5467 162.584 54.7026 162.666 62.87C162.666 63.4831 163.339 64.0963 163.698 64.7094C164.023 64.0615 164.627 63.4253 164.638 62.7775C164.731 58.7747 164.685 54.772 164.685 50.7693V50.7577Z" fill="white"/>
<path d="M238.791 48.1432C241.692 49.4389 241.796 51.4981 241.773 53.7539C241.738 57.3518 242.028 60.9496 241.947 64.5475C241.924 65.392 241.019 66.8728 240.392 66.9422C236.435 67.428 232.443 67.6363 228.463 67.7751C228.08 67.7867 227.361 66.6992 227.302 66.0861C227.14 64.2582 227.221 62.4073 227.221 60.5679C227.221 52.412 227.279 44.2446 227.186 36.0887C227.163 33.937 227.79 32.9537 230.064 33.1735C233.325 33.4858 236.609 33.5899 239.858 33.9485C241.692 34.1568 242.307 35.2789 241.994 37.2109C241.68 39.166 241.564 41.2368 241.866 43.1803C242.249 45.5981 242.179 47.4722 238.779 48.1201L238.791 48.1432ZM234.219 47.7846C233.975 47.8771 233.731 47.9697 233.499 48.0506C233.499 53.0483 233.476 58.0343 233.546 63.032C233.546 63.4022 234.172 63.7608 234.509 64.1194C234.868 63.6683 235.518 63.2286 235.53 62.7775C235.6 58.393 235.611 53.9969 235.495 49.6124C235.484 48.9877 234.671 48.3977 234.219 47.7846ZM236.029 40.3228C235.53 39.1197 234.926 37.0721 234.636 37.1183C232.582 37.4191 233.534 39.2238 233.522 40.3807C233.511 41.526 232.594 43.3769 234.718 43.5736C235.031 43.6083 235.542 41.5607 236.029 40.3228Z" fill="white"/>
<path d="M92.1813 48.2011C95.9527 49.4852 95.3029 51.984 95.3725 54.263C95.4769 57.7683 95.7322 61.2852 95.7554 64.7905C95.7554 65.4614 95.0591 66.6761 94.5833 66.734C90.3942 67.2199 86.1818 67.5322 81.9694 67.7636C81.6445 67.7867 81.0179 66.7571 80.9715 66.1902C80.8322 64.5244 80.9135 62.8354 80.9135 61.1464C80.9135 52.7476 80.9714 44.3488 80.8786 35.9384C80.8554 33.9023 81.424 32.9306 83.5941 33.1619C87.087 33.5321 90.603 33.7173 94.0843 34.1569C95.5929 34.342 96.0223 35.3253 95.7322 36.968C95.3725 38.9925 95.1171 41.1906 95.5233 43.1572C96.0455 45.6445 95.8831 47.3797 92.1813 48.1895V48.2011ZM88.0269 47.7615L87.0637 48.1548C87.0637 53.0021 87.0289 57.8493 87.1101 62.6965C87.1101 63.194 87.8064 63.6683 88.1894 64.1542C88.5375 63.6105 89.1874 63.0667 89.199 62.5114C89.2802 58.3699 89.2918 54.2168 89.1641 50.0752C89.1409 49.2885 88.4215 48.525 88.0269 47.7615ZM89.814 40.5196C89.1641 39.2355 88.5955 38.1017 88.0269 36.968C87.702 38.1596 87.145 39.3396 87.0986 40.5427C87.0638 41.6302 86.2515 43.3886 88.1894 43.5853C88.5839 43.6315 89.1757 41.769 89.814 40.5196Z" fill="white"/>
<path d="M70.574 68.6891C68.346 68.2495 66.2805 67.9487 64.2845 67.4281C62.9616 67.0811 62.5671 66.2366 62.8108 64.6864C63.2054 62.2685 63.1705 59.7582 63.1821 57.2941C63.2285 51.5329 63.2169 45.7833 63.2053 40.0221C63.2053 39.062 63.3214 38.0208 62.9848 37.1763C62.0101 34.7006 63.3214 33.8214 65.3753 33.324C69.0307 32.4332 72.7093 32.2943 76.2602 33.671C77.0377 33.9718 78.0588 35.0245 78.0588 35.7302C78.0588 41.3178 77.7572 46.9055 77.7456 52.4815C77.7456 56.785 78.0589 61.0886 78.0821 65.3921C78.0821 66.0399 77.351 67.0926 76.7476 67.2777C74.7168 67.914 72.5816 68.2495 70.5625 68.6891H70.574ZM71.5488 50.6074C71.5488 46.5237 71.5953 42.44 71.5024 38.3447C71.4908 37.7084 70.8642 37.0837 70.5276 36.459C70.1563 37.0606 69.4717 37.6506 69.4601 38.2522C69.402 46.4196 69.4137 54.5986 69.4833 62.766C69.4833 63.4138 70.0983 64.0501 70.4348 64.698C70.8061 64.0038 71.4792 63.3213 71.5024 62.6272C71.6069 58.6244 71.5488 54.6217 71.5488 50.6074Z" fill="white"/>
<path d="M113.243 51.7295C113.243 56.2181 113.092 60.7068 113.301 65.1838C113.441 68.0528 111.804 67.8793 109.82 67.995C107.522 68.1338 106.919 67.2199 107 65.0797C107.139 61.5628 107.047 58.0344 107.035 54.506C107.035 53.7888 107.116 53.0252 106.907 52.3658C106.745 51.8684 106.176 51.5097 105.793 51.0817C105.492 51.5444 104.923 51.9956 104.911 52.4584C104.842 56.623 104.911 60.7878 104.819 64.9525C104.795 65.8895 104.447 67.5438 104.006 67.6363C102.498 67.9371 100.838 67.833 99.3065 67.5438C98.9584 67.4744 98.7032 66.0283 98.7032 65.2185C98.6567 56.7503 98.6683 48.2705 98.6451 39.8023C98.6451 39.0041 98.6567 38.1943 98.5523 37.4076C98.1345 34.2957 98.2506 33.6594 101.372 33.3355C104.737 32.9769 108.195 33.2892 111.584 33.59C113.116 33.7288 113.858 34.6659 113.568 36.6672C113.116 39.8949 113.313 43.215 113.267 46.489C113.243 48.2474 113.267 49.9943 113.267 51.7527H113.243V51.7295ZM104.888 41.5955C104.888 42.949 104.795 44.3256 104.946 45.6676C104.993 46.1188 105.666 46.5121 106.06 46.9286C106.385 46.5468 106.965 46.1766 106.977 45.7949C107.035 43.0763 107.012 40.3576 106.919 37.6506C106.907 37.2457 106.327 36.8523 106.014 36.4474C105.643 36.887 105.004 37.292 104.958 37.7663C104.807 39.0272 104.911 40.3229 104.911 41.5955H104.888Z" fill="white"/>
<path d="M216.8 68.6659C214.711 68.2494 212.634 67.9949 210.673 67.3702C210.012 67.1619 209.188 66.0398 209.188 65.3341C209.199 60.4753 209.536 55.6165 209.536 50.7577C209.536 45.7369 209.211 40.7162 209.176 35.6954C209.176 35.0591 209.93 34.0642 210.569 33.8213C214.688 32.2248 218.901 32.2364 223.008 33.8213C223.681 34.0758 224.355 35.3367 224.355 36.1465C224.447 45.8063 224.447 55.4661 224.343 65.1259C224.343 65.9125 223.577 67.1388 222.904 67.3702C220.954 68.0296 218.877 68.2725 216.8 68.689V68.6659ZM217.972 50.4916C217.972 46.4079 218.019 42.3357 217.926 38.252C217.914 37.6505 217.206 37.0605 216.823 36.4705C216.464 37.0721 215.79 37.6736 215.779 38.2867C215.709 46.4426 215.709 54.5984 215.779 62.7543C215.779 63.3906 216.394 64.0269 216.73 64.6631C217.137 64.0153 217.891 63.379 217.914 62.7196C218.019 58.6474 217.972 54.5638 217.972 50.4916Z" fill="white"/>
<path d="M185.468 48.0968C188.52 49.4735 188.671 51.4633 188.671 53.6497C188.671 57.3286 188.961 61.0074 188.903 64.6862C188.903 65.4613 188.01 66.8264 187.406 66.8958C183.368 67.3701 179.295 67.6246 175.233 67.7634C174.874 67.775 174.177 66.4793 174.154 65.7736C174.038 62.5691 174.096 59.3646 174.096 56.1601C174.096 49.3578 174.166 42.567 174.073 35.7647C174.05 33.7402 174.769 32.9998 176.742 33.1734C180.084 33.4741 183.449 33.5782 186.78 33.9831C188.659 34.2145 189.367 35.3135 188.903 37.419C188.485 39.3278 188.427 41.4564 188.81 43.3768C189.298 45.8409 188.892 47.4258 185.48 48.0853L185.468 48.0968ZM181.326 47.7729C181.001 47.8539 180.676 47.9464 180.351 48.0274C180.351 53.0251 180.328 58.0111 180.397 63.0087C180.397 63.3905 181.024 63.7723 181.36 64.154C181.72 63.7029 182.37 63.2632 182.382 62.8005C182.451 58.4854 182.463 54.1703 182.358 49.8552C182.347 49.1496 181.685 48.467 181.326 47.7729ZM182.939 40.531C182.37 39.2121 181.883 38.0669 181.407 36.9332C181.024 38.1016 180.362 39.27 180.351 40.4384C180.339 41.5259 181.012 42.6249 181.384 43.7123C181.871 42.7059 182.358 41.711 182.939 40.531Z" fill="white"/>
<path d="M138.262 64.1774C138.262 62.9511 138.274 62.0141 138.262 61.077C138.111 52.7592 137.926 44.4529 137.891 36.1351C137.891 35.4757 138.912 34.3073 139.55 34.2263C143.507 33.752 147.499 33.4628 151.479 33.3355C151.897 33.3239 152.721 34.8163 152.744 35.6377C152.86 40.6006 152.802 45.5635 152.802 50.5265C152.802 55.4894 152.71 60.4639 152.872 65.4152C152.953 68.0182 151.479 67.9487 149.658 67.9487C147.882 67.9487 146.594 67.9025 146.64 65.4615C146.768 57.2941 146.687 49.1266 146.675 40.9592C146.675 40.4733 146.78 39.9643 146.652 39.5247C146.374 38.6224 145.967 37.7663 145.608 36.8987C145.236 37.7432 144.54 38.5761 144.528 39.4206C144.447 46.3039 144.482 53.1988 144.494 60.0821C144.494 61.9215 144.412 63.7725 144.494 65.6119C144.586 67.405 143.797 68.0644 142.068 67.9603C140.711 67.8793 139.341 67.9372 137.972 67.9256C136.603 67.9256 135.222 68.1685 135.117 66.0168C135.013 63.8072 136.394 64.0385 138.25 64.1774H138.262Z" fill="white"/>
<path d="M203.049 46.6508C206.809 47.449 206.762 49.1958 206.577 51.6599C206.217 56.3452 206.414 61.0999 206.623 65.8083C206.693 67.4858 206.228 68.0179 204.697 67.9254C204.372 67.9022 204.058 67.9254 203.734 67.9254C201.42 67.9177 200.26 66.7801 200.252 64.5127C200.252 60.6719 200.299 56.8311 200.206 52.9788C200.194 52.3425 199.614 51.7294 199.289 51.1047C198.871 51.7525 198.117 52.3888 198.105 53.0366C197.989 57.2013 197.943 61.366 198.082 65.5191C198.163 67.9832 196.736 67.9601 194.995 67.9485C193.29 67.937 191.862 68.0526 191.886 65.5538C191.99 55.5586 191.99 45.5749 191.886 35.5796C191.862 33.0692 193.301 33.208 194.995 33.1849C196.748 33.1618 198.175 33.1386 198.059 35.6259C197.897 39.351 198.013 43.0876 198.013 46.8243C198.326 46.94 198.639 47.0557 198.953 47.1714C199.382 46.3731 200.136 45.5864 200.183 44.7651C200.345 41.977 200.38 39.1543 200.217 36.3663C200.078 34.0063 200.786 33.0229 203.304 33.1502C206.623 33.3237 206.611 33.1734 206.449 36.5629C206.379 37.9165 206.426 39.2816 206.426 40.6467C206.426 42.9488 206.89 45.4129 203.049 46.6623V46.6508Z" fill="white"/>
<path d="M7.09818 50.6422C7.09818 54.6449 7.05177 58.6592 7.1446 62.6619C7.16781 63.356 7.82925 64.0386 8.18899 64.7211C8.54872 64.027 9.17537 63.3445 9.22179 62.6272C9.36104 60.5564 9.33784 58.4625 9.26822 56.3802C9.17538 53.7425 11.0553 54.2862 12.5987 54.2284C14.1188 54.1706 15.4881 54.0896 15.4881 56.3339C15.4881 59.3649 15.8246 62.3958 15.8479 65.4268C15.8479 66.04 15.2328 67.0001 14.6758 67.2199C10.3938 68.8742 6.03059 68.9205 1.7486 67.2778C1.14517 67.0464 0.58815 65.8433 0.576546 65.0797C0.483711 55.4084 0.47212 45.7371 0.55335 36.0542C0.55335 35.3022 1.16838 34.1338 1.78341 33.8908C6.0538 32.1671 10.4054 32.1902 14.6758 33.9487C15.2444 34.18 15.8711 35.1171 15.8595 35.7187C15.8363 39.1545 15.5229 42.5789 15.5113 46.0147C15.5113 48.0855 14.6874 48.4673 12.8307 48.0739C9.2914 47.322 9.26822 47.3914 9.26822 43.7126C9.26822 41.8731 9.36103 40.0222 9.21017 38.1944C9.16376 37.5928 8.46751 37.0375 8.06136 36.4591C7.73643 37.0259 7.14459 37.5928 7.13299 38.1596C7.05176 42.3243 7.0866 46.489 7.0866 50.6537L7.09818 50.6422Z" fill="white"/>
<path d="M122.584 60.3712C122.584 62.2685 122.514 64.0038 122.596 65.7159C122.723 68.342 120.867 67.8792 119.312 67.9255C117.699 67.9834 116.306 68.0412 116.329 65.6697C116.411 55.5934 116.387 45.5172 116.341 35.4294C116.341 33.7866 116.979 33.0462 118.627 33.1735C122.132 33.4511 125.648 33.6131 129.141 34.018C130.928 34.2262 131.287 35.3021 131.206 37.2688C130.939 43.8166 130.939 50.3876 131.253 56.9238C131.357 59.064 130.742 60.0704 128.966 60.3018C127.017 60.5563 124.998 60.3597 122.573 60.3597L122.584 60.3712ZM124.684 46.917C124.684 44.1174 124.742 41.3293 124.638 38.5413C124.615 37.9976 123.988 37.477 123.64 36.9448C123.292 37.4886 122.654 38.0207 122.642 38.5645C122.561 43.9901 122.561 49.4274 122.642 54.853C122.642 55.3389 123.396 55.8132 123.803 56.2991C124.093 55.8132 124.626 55.3389 124.638 54.8414C124.719 52.2038 124.673 49.5777 124.673 46.9401L124.684 46.917Z" fill="white"/>
<path d="M51.6702 60.3597C51.6702 62.4767 51.6702 64.2236 51.6702 65.9704C51.6702 68.6891 49.6046 67.7867 48.1773 67.914C46.7151 68.0412 45.4851 67.914 45.4967 65.8547C45.5547 55.6975 45.4967 45.5519 45.5779 35.3946C45.5779 34.6774 46.4251 33.3239 46.8544 33.3354C50.6839 33.4164 54.5248 33.6131 58.3311 34.0411C60.0485 34.2378 60.4199 35.3252 60.327 37.315C60.0253 43.8513 60.0485 50.4338 60.3967 56.97C60.5127 59.1565 59.8397 60.082 58.0758 60.3018C56.1263 60.5447 54.1071 60.3597 51.6702 60.3597ZM53.8054 46.836C53.8054 44.1289 53.875 41.4103 53.7589 38.7033C53.7357 38.1017 53.0627 37.5233 52.6797 36.9333C52.3548 37.5001 51.7514 38.0554 51.7514 38.6223C51.6818 43.967 51.6818 49.3117 51.7514 54.6448C51.7514 55.1769 52.4129 55.7091 52.761 56.2413C53.1091 55.6513 53.7357 55.0844 53.7706 54.4828C53.8866 51.9377 53.817 49.3811 53.817 46.8244L53.8054 46.836Z" fill="white"/>
<path d="M18.3775 50.0751C18.3775 44.9618 18.3427 39.8485 18.4355 34.7352C18.4355 34.2146 19.155 33.3354 19.6308 33.266C20.9653 33.0577 22.3694 33.0461 23.6923 33.266C24.2029 33.3585 24.9107 34.3187 24.9223 34.8971C25.0036 37.2108 24.7135 39.5361 24.8643 41.8267C24.9108 42.5787 25.8855 43.2728 26.4541 43.9785C26.4889 44.0247 26.605 44.0247 26.6862 44.0479C28.8098 44.6842 31.6993 44.7073 32.8365 46.1302C33.8809 47.449 33.0106 50.2486 33.0686 52.4004C33.1846 56.542 33.4515 60.6835 33.4399 64.8251C33.4399 65.5654 32.4188 66.8496 31.7573 66.9305C27.8002 67.3933 23.8199 67.6478 19.8396 67.7635C19.4451 67.7635 18.656 66.3984 18.6444 65.658C18.54 60.4637 18.5864 55.2694 18.5864 50.0636C18.5168 50.0636 18.4587 50.0636 18.3891 50.0636L18.3775 50.0751ZM25.8507 47.7614C25.5025 47.8771 25.1544 47.9928 24.7947 48.1085C24.7947 52.8863 24.7599 57.6641 24.8411 62.4303C24.8411 63.0203 25.4793 63.5988 25.8274 64.1888C26.2104 63.5757 26.9066 62.9741 26.9183 62.3609C27.0111 58.2888 27.0111 54.2051 26.8951 50.133C26.8719 49.3347 26.2104 48.5481 25.8507 47.7498V47.7614Z" fill="white"/>
<path d="M35.981 50.9776C35.981 45.6214 36.0391 40.2767 35.9462 34.932C35.923 33.6363 36.3408 33.2777 37.536 33.1851C42.201 32.7918 42.3402 32.9075 42.317 37.4424C42.2938 46.5469 42.317 55.6629 42.3054 64.7674C42.3054 67.9141 42.2822 67.7984 39.3115 67.9719C36.9326 68.1107 36.039 67.3703 36.1319 64.8831C36.3175 60.2557 36.1899 55.6166 36.1899 50.9776C36.1203 50.9776 36.0507 50.9776 35.9695 50.9776H35.981Z" fill="white"/>
<path d="M149.378 78.2562C152.372 78.2562 152.686 78.5801 152.627 81.4491C152.627 81.6805 152.628 81.9234 152.662 82.1548C153.243 85.5559 152.813 85.984 149.448 86.0881C147.475 86.1459 146.605 85.4865 146.825 83.4852C146.918 82.6985 146.895 81.8887 146.825 81.0905C146.605 78.9503 147.359 77.8513 149.378 78.2562ZM150.922 81.854C150.562 82.0275 150.202 82.201 149.831 82.3861C149.332 82.8257 148.821 83.2654 148.322 83.705C148.752 84.133 149.251 84.9428 149.599 84.885C150.318 84.7693 151.2 84.3297 151.548 83.7397C151.769 83.3695 151.154 82.4902 150.922 81.8424V81.854ZM151.455 80.5814C151.432 80.3616 151.409 80.1418 151.397 79.9336C150.794 79.7601 150.167 79.3899 149.599 79.4709C149.158 79.5287 148.775 80.1419 148.38 80.5005C148.926 80.7897 149.46 81.2756 150.028 81.3218C150.492 81.3565 150.991 80.8591 151.467 80.593L151.455 80.5814Z" fill="white"/>
<path d="M124.475 22.5419C122.363 22.5766 120.576 20.7488 120.553 18.5276C120.518 16.2601 122.189 14.386 124.29 14.3166C126.553 14.2356 128.247 15.9825 128.316 18.4582C128.374 20.6678 126.645 22.5072 124.487 22.5419H124.475ZM127.249 17.8103C126.32 17.07 125.473 15.8552 124.464 15.7049C122.653 15.4388 122.085 17.0005 122.096 18.5392C122.108 19.9968 122.7 21.2578 124.441 21.2346C126.297 21.2115 126.75 19.8696 127.26 17.8103H127.249Z" fill="white"/>
<path d="M121.088 82.7449C119.73 83.9712 118.64 84.9661 117.56 85.9494C117.363 85.8106 117.166 85.6602 116.969 85.5214C117.375 84.7578 117.781 83.9827 118.257 83.0919C117.955 82.6408 117.363 82.1549 117.328 81.6227C117.259 80.7435 117.328 79.1933 117.734 79.0429C119.092 78.5571 120.635 78.4414 122.098 78.4761C122.434 78.4761 122.956 79.6792 123.003 80.3502C123.13 82.1086 123.049 83.8902 123.049 85.6602C122.747 85.6949 122.446 85.7296 122.144 85.7643C121.865 84.9545 121.575 84.1447 121.1 82.7449H121.088ZM120.357 78.8925C119.545 79.6214 119.022 80.0841 118.512 80.5468C119.081 80.9517 119.614 81.588 120.229 81.6806C120.635 81.7384 121.448 81.0674 121.529 80.6162C121.61 80.2229 120.926 79.6792 120.357 78.8925Z" fill="white"/>
<path d="M145.015 21.7786C142.632 20.5215 140.273 20.4868 137.937 21.6745C138.888 19.4302 139.816 17.1743 140.838 14.9647C140.919 14.7796 141.975 14.7449 142.033 14.8953C143.077 17.1627 144.029 19.4765 145.004 21.7902L145.015 21.7786Z" fill="white"/>
<path d="M106.013 85.5793C104.992 84.4687 104.307 83.0805 103.275 82.7334C100.722 81.9005 101.987 85.0587 100.327 85.9032V78.6265C101.383 80.3503 101.894 82.3632 104.667 81.0559C104.888 80.3156 105.155 79.4595 105.421 78.5918L106.025 78.6381V85.5561L106.013 85.5793Z" fill="white"/>
<path d="M137.949 85.4635C138.889 83.2192 139.806 80.9634 140.839 78.7538C140.885 78.6497 142.324 78.8347 142.475 79.1818C143.427 81.241 144.181 83.3812 144.808 85.9494C142.591 83.4969 140.56 82.4557 138.576 86.3081C138.367 86.0304 138.158 85.7412 137.949 85.4635Z" fill="white"/>
<path d="M169.466 85.7179C167.525 83.9441 165.672 83.9479 163.908 85.7295C163.687 85.6369 163.479 85.5559 163.258 85.4634C164.186 83.196 165.103 80.917 166.113 78.6842C166.171 78.5454 167.366 78.6148 167.47 78.8462C168.457 81.0095 169.327 83.2423 170.232 85.4519C169.977 85.5444 169.722 85.6254 169.466 85.7179Z" fill="white"/>
<path d="M114.612 85.7411C112.702 84.1369 110.586 84.0174 108.265 85.3825C109.205 83.1613 110.133 80.917 111.154 78.7305C111.224 78.5917 112.396 78.6495 112.5 78.8809C113.51 81.0558 114.415 83.2885 115.344 85.4981C115.1 85.5791 114.856 85.6601 114.612 85.7411Z" fill="white"/>
<path d="M111.049 20.2859C111.2 21.7088 109.9 22.2989 108.334 22.5071C106.257 22.7732 104.62 21.4081 104.319 19.291C103.971 16.8732 105.108 14.814 107.15 14.4438C108.844 14.143 110.457 14.2934 111.038 16.8038C109.169 16.1328 107.208 14.2934 106.106 16.9426C105.677 17.9606 106.025 20.2975 106.593 20.5173C107.8 20.98 109.39 20.4363 111.049 20.2744V20.2859Z" fill="white"/>
<path d="M101.882 22.5536C100.211 22.2643 97.2987 22.3222 97.113 21.6397C96.5444 19.5342 96.6836 17.0585 97.2986 14.9414C97.4727 14.363 100.281 14.5481 101.882 14.3861C101.917 14.6869 101.94 14.9993 101.975 15.3001C101.407 15.4042 100.815 15.4505 100.281 15.6471C99.5499 15.9132 98.8536 16.3065 98.1457 16.642C98.8072 17.0122 99.4454 17.4403 100.13 17.7526C100.536 17.9377 101.012 17.9493 101.523 18.6087C100.838 18.7128 100.107 18.7012 99.5035 18.9673C98.9697 19.1987 98.5983 19.7655 98.1457 20.182C98.5867 20.5291 98.9813 21.0497 99.4803 21.1769C100.281 21.3852 101.14 21.3389 101.987 21.3967C101.952 21.79 101.906 22.1718 101.871 22.5651L101.882 22.5536Z" fill="white"/>
<path d="M157.305 80.9287C158.558 79.9569 159.637 79.1124 160.705 78.2795C160.89 78.4646 161.064 78.6497 161.25 78.8348C160.438 79.795 159.625 80.7667 158.755 81.7963C159.707 83.0573 160.6 84.2373 161.482 85.4173C161.296 85.614 161.111 85.8222 160.914 86.0189C159.788 85.024 158.662 84.0291 157.351 82.8606C157.003 83.9944 156.724 84.8967 156.457 85.7875C156.237 85.7528 156.028 85.7181 155.808 85.6834V78.615L156.423 78.5109C156.701 79.2513 156.968 80.0032 157.305 80.9171V80.9287Z" fill="white"/>
<path d="M129.86 86.3311C130.278 83.8786 130.765 82.0623 130.858 80.2229C130.963 78.3951 131.926 78.1753 133.399 78.2331C134.815 78.291 136.254 78.129 136.126 80.2461C136.022 82.0624 135.987 83.8786 135.929 85.6949C135.523 85.6949 135.117 85.6718 134.711 85.6718C134.711 84.2373 134.838 82.7912 134.653 81.3798C134.571 80.6972 133.922 80.0841 133.527 79.4363C133.109 80.061 132.517 80.6394 132.309 81.322C131.984 82.3747 132.065 83.5778 131.67 84.5959C131.427 85.2321 130.603 85.6486 129.86 86.3311Z" fill="white"/>
<path d="M91.6358 85.7642C91.6358 83.6008 91.4153 81.3912 91.7866 79.2973C91.8795 78.7767 93.9102 78.2677 94.9894 78.3718C95.883 78.4528 97.1014 79.2857 97.4147 80.0724C97.67 80.6971 96.8693 82.4671 96.3587 82.5481C94.2816 82.8604 92.5874 83.3 92.6918 86.1806C92.3437 86.0418 91.9839 85.903 91.6358 85.7757V85.7642ZM96.9854 80.6971C95.7321 80.0261 95.1751 79.494 94.6297 79.5171C94.1075 79.5287 93.5969 80.1071 93.0863 80.4426C93.4925 80.8822 93.8754 81.6573 94.328 81.692C94.943 81.7499 95.616 81.2524 96.9854 80.6971Z" fill="white"/>
<path d="M130.65 21.9172C130.65 19.6497 130.441 17.3591 130.835 15.1611C130.905 14.7446 133.412 14.4207 134.665 14.6868C135.396 14.8372 136.371 16.2833 136.301 17.0699C136.231 17.8335 134.943 19.106 134.247 19.0713C132.031 18.9556 131.926 20.6678 131.334 22.0444C131.102 21.9982 130.882 21.9634 130.65 21.9172ZM135.779 16.8848C134.514 16.2717 133.887 15.7396 133.261 15.7511C132.808 15.7511 132.367 16.4799 131.926 16.8848C132.367 17.3013 132.808 18.0533 133.249 18.0533C133.876 18.0533 134.502 17.5095 135.779 16.8848Z" fill="white"/>
<path d="M88.5729 22.0214C88.5729 19.8002 88.3524 17.5328 88.7354 15.381C88.8282 14.8952 91.0679 14.4324 92.2283 14.6175C93.0406 14.7448 94.1662 15.9132 94.2474 16.6998C94.3171 17.4518 93.2959 18.8979 92.588 19.0136C90.7197 19.3143 89.3156 19.6961 89.8146 22.4494C89.3968 22.3106 88.9791 22.1718 88.5729 22.033V22.0214ZM91.3464 18.6665C92.0774 17.8451 92.5416 17.3361 92.9942 16.8155C92.4023 16.4338 91.8221 15.8207 91.1955 15.7512C90.8242 15.7165 90.0583 16.5148 90.0351 16.9775C90.0003 17.4055 90.7081 17.8914 91.3464 18.6665Z" fill="white"/>
<path d="M78.2684 80.7318C76.5161 79.6906 74.7987 78.2214 73.6731 80.3268C73.1161 81.3796 73.2553 83.5429 73.998 84.399C75.5878 86.2153 76.8875 84.3643 78.222 83.2306C78.6165 84.8502 77.8738 85.6715 76.4813 86.088C74.2881 86.7474 72.4314 85.7294 71.8396 83.5429C71.1665 81.0557 72.2109 78.7882 74.2533 78.2908C76.4001 77.7702 77.7346 78.4412 78.2568 80.7202L78.2684 80.7318Z" fill="white"/>
<path d="M152.941 22.137C151.351 21.1652 152.663 18.7474 150.087 18.8052C147.568 18.8515 148.81 21.1884 147.232 22.2874C146.559 19.5919 146.849 17.2435 146.988 14.5943C148.183 15.9131 148.868 17.3013 149.936 17.6947C152.164 18.5392 151.572 15.8206 152.953 14.6174V22.1486L152.941 22.137Z" fill="white"/>
<path d="M82.0161 78.4992C82.0857 80.651 83.1185 81.4261 85.126 81.5302C85.7875 81.5649 86.8551 83.0572 86.8318 83.8555C86.8086 84.5959 85.6715 85.7527 84.8592 85.9263C81.4707 86.6551 81.0181 86.1808 81.0181 82.7333C81.0181 81.3798 81.0181 80.0263 81.0181 78.6727C81.3546 78.6149 81.6912 78.557 82.0161 78.4992ZM86.2632 83.9018C85.126 83.1845 84.5922 82.5598 84.0932 82.5945C83.5014 82.6292 82.9561 83.2423 82.3874 83.601C82.7936 84.0406 83.1765 84.8156 83.629 84.8503C84.2557 84.9082 84.9404 84.4108 86.2632 83.9018Z" fill="white"/>
<path d="M77.166 18.3196C75.6922 19.2682 74.7987 20.3094 74.0444 20.2168C73.2785 20.1127 72.0948 18.8633 72.1297 18.1807C72.1645 17.4404 73.3829 16.272 74.1604 16.2141C74.9147 16.1563 75.7502 17.2668 77.166 18.3311V18.3196Z" fill="white"/>
<path d="M116.156 22.2413C114.218 19.8928 117.27 16.2025 113.394 14.7217H119.301C115.193 16.3181 117.769 19.8119 116.156 22.2413Z" fill="white"/>
<path d="M170.986 18.4581C169.535 19.3373 168.537 20.4132 167.899 20.2281C167.04 19.9736 166.483 18.7589 165.787 17.9491C166.576 17.3244 167.365 16.2254 168.166 16.2138C168.909 16.2138 169.675 17.3475 170.986 18.4581Z" fill="white"/>
<path d="M87.9341 86.2731V78.3602C89.315 80.0376 89.373 83.9825 87.9341 86.2731Z" fill="white"/>
</svg>
