<svg width="168" height="100" viewBox="0 0 168 100" fill="none" xmlns="http://www.w3.org/2000/svg">
<path d="M111.031 0C120.186 4.58445 122.449 15.4089 116.631 25.6939C117.863 27.1846 119.209 28.3232 121.314 28.8026C124.508 29.5293 127.575 30.7653 130.725 31.6942C131.499 31.9264 132.378 31.799 133.205 31.8739C133.679 31.9189 134.227 31.8889 134.596 32.1286C143.593 37.8142 152.568 43.5298 161.543 49.2454C161.686 49.3353 161.761 49.5376 162.137 50.0619C159.281 50.1443 156.838 51.3579 154.094 49.9271C149.998 47.7847 145.751 45.9494 141.571 43.9718C141.195 43.792 140.857 43.5298 140.654 42.9156L148.72 45.6722C148.772 45.5599 148.832 45.44 148.885 45.3277C146.765 43.7546 144.646 42.174 142.526 40.6084C140.436 39.0652 138.354 37.5146 136.249 35.9939C135.107 35.1699 134.122 34.1886 132.341 34.7729C131.544 35.0351 130.326 34.2336 129.372 33.7616C126.959 32.5781 124.501 31.5743 121.75 31.784C119.427 31.9638 117.57 31.1848 116.082 29.4094C115.638 28.885 115.067 28.4656 114.323 27.7914C112.406 29.6341 110.452 31.402 108.64 33.2972C107.663 34.3235 106.678 34.6905 105.273 34.4583C103.649 34.1886 101.988 34.1062 100.342 34.0613C99.6652 34.0463 98.4851 34.2036 98.4024 34.5182C98.1769 35.3347 98.1544 36.4434 98.5452 37.155C99.8005 39.4173 101.289 41.5447 102.679 43.7321C102.845 43.9943 102.958 44.2864 102.83 44.9531C102.033 44.4812 101.139 44.1141 100.462 43.5074C98.4851 41.7245 96.5232 39.9267 94.7042 37.994C90.8029 33.8515 86.2403 30.5855 81.422 27.6266C80.9109 27.312 80.2945 27.1696 79.7232 26.9524C79.633 27.1022 79.5428 27.252 79.4451 27.4018L86.804 33.9714C86.6913 34.1512 86.5785 34.331 86.4658 34.5107C85.7667 34.2186 85.0075 34.0238 84.3686 33.6268C81.1965 31.6567 78.1522 29.4469 74.8674 27.6865C70.2896 25.2295 65.5315 23.0871 60.6832 20.7199C58.7138 25.0797 55.4215 28.8925 56.4137 34.1437C56.9775 37.1176 56.098 39.5671 53.6099 41.4249C52.986 41.8893 52.5426 42.5935 52.0464 43.4025C53.9933 41.9417 55.5944 43.1403 57.218 43.8669C61.247 45.6722 65.2534 47.515 69.2749 49.3428C69.2598 49.5301 69.2448 49.7248 69.2298 49.9121C68.6585 49.9121 68.0421 50.0469 67.5235 49.8896C66.0126 49.4252 64.5544 48.7585 63.036 48.3315C62.0588 48.0544 61.014 46.7809 59.9616 48.3016C59.9015 48.3914 59.3828 48.1742 59.0821 48.0843C58.9017 48.0319 58.7138 47.972 58.5485 47.8746C54.4744 45.4925 50.4754 44.8932 46.6569 48.3914C46.5442 48.4888 46.3111 48.4589 45.7775 48.5413C47.2958 45.5749 48.7015 42.8107 50.1146 40.054C50.0319 39.9417 49.9417 39.8293 49.8591 39.7169C48.7691 40.4735 47.5439 41.1028 46.6118 42.0242C44.8153 43.7995 42.9361 45.5823 41.538 47.6498C39.5686 50.5638 36.9377 50.429 34.1039 50.0769C33.5026 48.5488 36.4416 47.5075 34.4346 45.867C35.7952 44.1441 37.1632 42.4212 38.5237 40.6983C38.4185 40.5934 38.3133 40.481 38.2081 40.3761C37.3887 41.2301 36.4942 42.0316 35.7651 42.9605C33.262 46.1517 29.7517 48.0319 26.2714 49.7623C24.6252 50.5863 22.3401 50.1443 20.0174 50.2941C20.2354 49.0057 20.4008 48.0618 20.5662 47.103C17.0859 46.0243 14.9211 48.2791 12.666 50.3241C12.5533 50.1743 12.4405 50.032 12.3278 49.8821C13.4779 48.3016 14.6279 46.7285 15.8757 45.013C13.4478 44.0842 12.9216 46.7959 11.1928 46.6685C10.3509 46.7659 9.4188 46.6685 8.68215 47.0056C6.84054 47.8521 5.09666 48.9008 3.30766 49.8522C2.84162 50.0994 2.34551 50.2792 1.86443 50.4964C1.76671 50.3391 1.66901 50.1818 1.57129 50.0245C6.96082 46.0318 12.3503 42.0391 17.8376 37.979C17.6046 37.6494 17.3866 37.3423 17.1385 36.9902C17.3941 36.788 17.5745 36.6157 17.785 36.4734C21.4982 33.9414 25.3017 31.5219 28.9023 28.8476C30.9243 27.3419 33.0365 27.4917 34.8706 28.4131C37.2609 29.6117 39.1927 29.7091 41.1772 27.8738C44.4394 24.8549 48.957 24.5103 52.7229 22.5627C54.9179 21.4316 57.1954 20.4428 59.5031 19.5738C60.2773 19.2817 61.3597 19.3041 62.1415 19.6038C64.0357 20.3154 65.7946 21.3791 67.6813 22.1132C70.5527 23.2369 73.4768 24.2257 76.4083 25.1995C76.8969 25.3568 77.5734 25.2445 78.0695 25.0272C79.8209 24.2556 81.1965 24.795 82.5646 25.9411C83.8199 26.9973 85.3608 27.7464 86.5184 28.8925C88.375 30.7353 90.2392 30.5106 92.4942 29.3795C89.5326 26.9374 87.1122 24.2107 85.9772 20.0308C93.5165 30.6904 104.754 29.0349 110.512 24.3231C117.796 18.3603 118.051 9.71574 111.016 0L111.031 0ZM32.142 32.4432C34.4647 34.2635 35.0961 32.1511 36.5093 31.1248C35.4719 30.4956 34.6752 29.8963 33.7807 29.4993C31.8489 28.6453 28.8647 29.8664 28.7369 31.5443C28.564 33.8515 28.5189 36.1587 28.4212 38.3236C30.4958 37.3423 31.2776 35.0126 32.142 32.4358V32.4432Z" fill="white"/>
<path d="M103.589 82.8948C103.589 81.1644 103.506 79.5313 103.612 77.9133C103.709 76.49 102.852 76.3702 101.838 76.3477C100.838 76.3252 99.733 76.093 99.7105 77.7036C99.6955 79.3965 99.5677 81.0895 99.4775 82.9172H90.2168V62.7591C92.9078 62.7591 95.7416 62.7067 98.5679 62.8266C98.9362 62.8415 99.5 63.6955 99.5752 64.2124C99.8007 65.7555 99.8308 67.3211 99.9435 69.0141H103.604C103.604 67.411 103.657 65.9053 103.589 64.4071C103.537 63.2386 103.807 62.6618 105.16 62.7741C107.37 62.9614 109.595 62.9239 111.805 63.1037C112.256 63.1412 113.045 63.6955 113.045 64.0176C113.12 70.2576 113.098 76.49 113.098 82.8873H103.574L103.589 82.8948Z" fill="white"/>
<path d="M158.822 75.5387C156.079 77.7635 153.53 79.816 150.997 81.891C148.817 83.6814 146.314 83.0371 143.894 82.7825C143.631 82.7525 143.285 81.6888 143.293 81.1045C143.353 76.6848 143.518 72.2652 143.586 67.8455C143.608 66.22 143.443 64.587 143.353 62.6543C145.939 62.6543 148.381 62.6094 150.824 62.7217C151.103 62.7367 151.523 63.6506 151.569 64.1675C151.764 66.5421 151.847 68.9242 151.982 71.591C155.056 68.7295 157.868 66.1001 160.694 63.4858C161.536 62.7067 166.527 62.1599 167.414 62.8116C167.722 63.0363 167.88 63.6581 167.872 64.1001C167.82 69.7857 167.752 75.4713 167.602 81.1494C167.587 81.6588 167.046 82.5727 166.715 82.5877C163.956 82.7001 161.183 82.6551 158.213 82.6551C158.416 80.3104 158.612 78.0332 158.822 75.5387Z" fill="white"/>
<path d="M46.0855 82.7449C43.0111 82.8797 40.3652 83.0595 37.7193 83.052C37.2683 83.052 36.5617 82.3029 36.4114 81.7785C35.9378 80.138 34.9607 79.5762 33.3295 79.8009C32.5854 79.8983 31.8036 79.8833 31.0519 79.8009C29.1427 79.5687 27.7145 79.9358 27.2635 82.1306C27.1808 82.5351 26.4141 83.0595 25.9405 83.0745C23.6103 83.1719 21.2801 83.1194 18.4839 83.1194C19.5137 80.9321 20.3255 79.2541 21.0997 77.5686C23.1518 73.0966 25.2415 68.632 27.2109 64.1224C27.6919 63.0212 28.2707 62.5268 29.4734 62.6392C30.413 62.7291 31.3977 62.7815 32.3223 62.6242C34.7652 62.2122 36.0581 63.2759 37.1105 65.4483C39.5609 70.4972 42.2895 75.4187 44.9054 80.3852C45.2511 81.0369 45.5668 81.7036 46.0855 82.7524V82.7449ZM34.2766 74.1303C33.6001 72.707 33.0739 71.6208 32.4049 70.2125C31.7585 71.6059 31.2774 72.6321 30.6986 73.8831C31.9991 73.973 32.9612 74.0404 34.2766 74.1303Z" fill="white"/>
<path d="M88.8178 83.097C85.6908 83.097 83.0975 83.1869 80.5193 83.0296C79.9555 82.9921 79.1888 82.1831 78.9633 81.5688C78.4747 80.2354 77.7456 79.6362 76.3023 79.8085C75.4304 79.9133 74.5209 79.8983 73.6489 79.7935C71.7171 79.5538 70.3265 79.9882 69.8905 82.1531C69.8154 82.5352 69.1388 83.052 68.7179 83.067C66.3351 83.1569 63.9448 83.112 61.0884 83.112C62.1783 80.8272 63.0352 79.1043 63.8395 77.3514C65.839 72.9917 67.861 68.6395 69.7778 64.2498C70.2739 63.1261 70.8752 62.7816 72.1305 62.5868C76.6556 61.8677 79.2715 63.4932 81.0078 67.8304C82.8044 72.3175 85.4578 76.46 87.7278 80.7598C88.0135 81.2991 88.2465 81.8685 88.8178 83.1045V83.097ZM76.9788 74.1753C76.2121 72.6396 75.6784 71.5759 75.017 70.25C74.3856 71.5684 73.9195 72.5572 73.3257 73.8007C74.5735 73.9281 75.5281 74.0254 76.9713 74.1753H76.9788Z" fill="white"/>
<path d="M141.946 82.7449C139.037 82.8722 136.452 83.0745 133.881 83.037C133.332 83.0295 132.498 82.2355 132.302 81.6437C131.821 80.183 131.002 79.6287 129.499 79.8009C128.627 79.9058 127.717 79.8833 126.838 79.7935C125.004 79.6137 123.651 79.9732 123.207 82.0782C123.117 82.5052 122.245 83.037 121.711 83.067C119.449 83.1794 117.171 83.1119 114.57 83.1119C114.901 82.198 115.036 81.7336 115.232 81.3066C117.878 75.5761 120.569 69.868 123.147 64.1074C123.643 62.9913 124.237 62.6392 125.41 62.6242C131.445 62.5643 131.438 62.5418 134.204 67.8229C136.519 72.2426 138.842 76.6548 141.157 81.0744C141.383 81.5089 141.578 81.9583 141.939 82.7449H141.946ZM126.552 73.8831H130.13C129.521 72.6096 129.025 71.5684 128.371 70.2051C127.695 71.5759 127.206 72.5647 126.552 73.8831Z" fill="white"/>
<path d="M14.2969 82.9247H5.60753V69.6507H0C0.25557 67.5607 0.466038 65.5382 0.796777 63.5381C0.849394 63.2385 1.51089 62.8265 1.89424 62.8265C7.91518 62.774 13.9361 62.7815 19.9571 62.7815C20.0623 62.7815 20.1675 62.9089 20.4231 63.0662C19.9871 65.0213 19.5812 67.0514 19.025 69.0365C18.9348 69.3511 18.1455 69.6058 17.6569 69.6432C16.5369 69.7331 15.4019 69.6732 14.3044 69.6732V82.9321L14.2969 82.9247Z" fill="white"/>
<path d="M56.9173 69.688V82.8721H48.1678C48.1678 81.3289 48.1152 79.8308 48.1753 78.3401C48.3707 73.6732 48.5737 69.0139 48.8668 64.3545C48.9044 63.8151 49.5358 62.8638 49.9117 62.8563C54.2038 62.7514 58.5034 62.7889 63.0811 62.7889C62.6 64.9762 62.2016 67.0437 61.6454 69.0663C61.5627 69.3809 60.7584 69.6356 60.2698 69.6731C59.1498 69.7629 58.0223 69.703 56.9173 69.703V69.688Z" fill="white"/>
<path d="M133.76 99.7718V90.7677C135.392 90.6628 136.978 90.4306 138.549 90.4905C140.029 90.543 140.999 92.161 140.916 94.0637C140.834 96.0263 139.616 97.4945 137.91 97.6144C137.353 97.6519 136.79 97.5769 136.106 97.5395C135.955 98.8055 136.301 100.648 133.753 99.7718H133.76ZM135.377 93.9963C136.098 94.8877 136.527 95.4046 136.948 95.9289C137.466 95.2772 138.271 94.6705 138.413 93.9438C138.504 93.4869 137.617 92.8352 137.166 92.2659C136.662 92.7528 136.151 93.2472 135.377 93.9963Z" fill="white"/>
<path d="M129.228 92.3181H125.53C125.59 91.8088 125.59 90.9923 125.703 90.9773C127.161 90.7975 128.687 90.4754 130.093 90.7301C130.777 90.8574 131.649 92.041 131.769 92.85C132.393 97.0749 131.333 98.1536 127.071 97.5993C126.304 97.5019 125.335 96.5655 125.041 95.8014C124.613 94.6778 125.35 93.7339 126.552 93.3819C127.439 93.1272 128.364 92.9923 129.266 92.8051C129.258 92.6478 129.243 92.483 129.236 92.3256L129.228 92.3181Z" fill="white"/>
<path d="M61.6752 92.3257H57.9168C58.0897 91.7189 58.2025 90.85 58.3678 90.835C59.9088 90.7301 61.5399 90.5129 62.9831 90.9024C63.622 91.0747 63.9453 92.5654 64.3061 93.4943C64.4564 93.8763 64.3361 94.3707 64.3361 94.8127C64.3361 97.3596 64.3361 97.3371 61.8105 97.2697C61.3294 97.2547 60.8559 97.5768 60.3673 97.6293C59.0744 97.7716 57.8792 97.5469 57.5109 96.0861C57.1351 94.588 57.8642 93.6516 59.3224 93.277C60.0892 93.0823 60.8784 92.9774 61.6601 92.8276C61.6601 92.6628 61.6677 92.4905 61.6752 92.3257Z" fill="white"/>
<path d="M22.5879 90.7453H24.9406V95.562C26.662 96.1912 27.4136 95.7792 27.2934 94.0563C27.2182 92.9476 27.2784 91.839 27.2784 90.6629H29.4657C29.5184 91.2322 29.5484 91.7191 29.6086 92.206C29.8341 94.0338 30.1347 95.8541 30.2625 97.6894C30.2926 98.1538 29.804 98.6632 29.5484 99.1501C29.0974 98.858 28.6689 98.5059 28.1879 98.2887C27.5189 97.989 26.8198 97.592 26.1208 97.577C22.0166 97.4572 22.648 98.0565 22.5954 94.0563C22.5804 93.0001 22.5954 91.9364 22.5954 90.7378L22.5879 90.7453Z" fill="white"/>
<path d="M18.199 92.3483H14.7638C14.2001 91.2246 14.5459 90.5954 15.7185 90.513C16.7257 90.4456 17.748 90.4381 18.7402 90.5579C20.0481 90.7152 20.7472 91.5243 20.7773 92.8726C20.7773 92.9325 20.7848 93 20.7773 93.0599C20.642 94.5206 21.0253 96.5357 20.221 97.2923C19.3942 98.0638 17.3722 97.8166 15.944 97.5694C15.1773 97.4346 14.1775 96.4683 14.0046 95.7117C13.8618 95.0974 14.6285 93.9813 15.2975 93.5468C16.0793 93.0374 17.1843 93.0299 18.1464 92.7977C18.1614 92.6479 18.1765 92.4981 18.1915 92.3483H18.199Z" fill="white"/>
<path d="M110.422 90.82C110.422 92.6928 110.489 94.5805 110.369 96.4457C110.346 96.8278 109.632 97.457 109.249 97.457C108.881 97.457 108.324 96.8203 108.204 96.3633C108.024 95.6891 108.159 94.9251 108.159 93.6067C107.152 94.97 106.573 95.9363 105.806 96.7154C105.385 97.1424 104.649 97.4046 104.055 97.412C103.837 97.412 103.431 96.4757 103.408 95.9513C103.326 94.2134 103.378 92.468 103.378 90.5653C104.273 90.6328 104.874 90.6777 105.566 90.7226C105.626 91.7115 105.678 92.5654 105.731 93.5692C107.4 92.7752 107.52 89.8013 110.429 90.8125L110.422 90.82Z" fill="white"/>
<path d="M36.141 93.9063C35.3367 95.015 34.8406 95.9214 34.134 96.6105C33.6604 97.0675 32.8937 97.2173 32.2548 97.5095C32.0518 96.9851 31.691 96.4607 31.6685 95.9289C31.5933 94.2434 31.6384 92.5505 31.6384 90.7002C32.3751 90.6552 32.9689 90.6253 33.7732 90.5803C33.8634 91.5991 33.9386 92.5055 34.0288 93.5318C35.6373 92.7302 35.7802 89.7339 38.5163 90.8275V97.2623C37.2535 97.5419 36.4592 96.4283 36.1334 93.9213L36.141 93.9063Z" fill="white"/>
<path d="M85.2549 94.8129C85.2549 95.4121 85.4128 96.0339 85.2098 96.4983C85.0144 96.9328 84.4732 97.4047 84.0147 97.4796C83.714 97.5321 82.9999 96.9328 82.9849 96.5957C82.8872 94.6556 82.9323 92.7154 82.9323 90.6779H85.067C85.1647 91.3296 85.2625 91.9888 85.3902 92.7903H87.4874C87.5626 92.1311 87.6453 91.4644 87.7355 90.7003H89.8552V97.4047C89.2088 97.4422 88.5623 97.4796 87.7806 97.5321C87.6829 96.5882 87.6077 95.7942 87.51 94.8129H85.2549Z" fill="white"/>
<path d="M144.788 94.6555C144.713 95.5395 144.803 96.0863 144.593 96.4758C144.36 96.9103 143.841 97.4796 143.465 97.4721C143.067 97.4646 142.375 96.8504 142.345 96.4684C142.225 94.5956 142.292 92.7154 142.292 90.7153H144.532C144.593 91.5393 144.653 92.3184 144.758 93.6667C145.434 92.8352 145.765 92.2959 146.224 91.9064C146.81 91.412 147.471 90.955 148.171 90.6479C148.404 90.543 149.118 90.8951 149.17 91.1348C149.253 91.5468 149.118 92.3408 148.862 92.4457C146.524 93.3596 147.614 94.5507 148.486 95.7717C148.802 96.2137 149.065 96.6856 149.411 97.2399C146.795 98.4385 146.299 96.0339 144.78 94.663L144.788 94.6555Z" fill="white"/>
<path d="M51.4369 94.8726C51.3918 95.4269 51.497 96.0562 51.264 96.5131C51.046 96.9476 50.5048 97.4045 50.0538 97.4645C49.7456 97.5019 49.0616 96.8951 49.0466 96.5431C48.9488 94.6179 49.0015 92.6777 49.0015 90.6702H51.1738C51.2715 91.3818 51.3693 92.041 51.4595 92.7227C53.3311 93.4268 53.9024 92.5804 53.7145 90.805C55.2629 90.3256 56.2176 90.4529 56.0522 92.3931C55.9545 93.5167 55.9695 94.6628 56.0522 95.794C56.1725 97.397 55.4734 97.839 53.9099 97.3746C53.3537 96.3933 54.3459 93.7639 51.4294 94.8651L51.4369 94.8726Z" fill="white"/>
<path d="M43.8906 97.7117C41.5153 97.7491 40.1172 96.4831 40.0571 94.2434C39.9969 91.8612 41.38 90.4155 43.7253 90.393C46.093 90.3705 47.6415 91.8313 47.6265 94.0786C47.6114 96.2809 46.1757 97.6817 43.8906 97.7117ZM45.7848 94.1834C44.973 93.277 44.5296 92.3257 43.9207 92.2058C42.6504 91.9661 42.3271 93.1347 42.5 94.0561C42.6278 94.7527 43.3344 95.337 43.7854 95.9738C44.3491 95.4644 44.9204 94.9625 45.7924 94.1759L45.7848 94.1834Z" fill="white"/>
<path d="M67.0495 90.6927H72.9953C72.9953 92.7377 73.0479 94.6704 72.9427 96.603C72.9277 96.9326 72.2061 97.5244 71.8903 97.472C71.4469 97.3971 70.8155 96.9027 70.7253 96.4907C70.5449 95.6517 70.7704 94.7228 70.6275 93.8688C70.5373 93.322 70.1014 92.8351 69.8232 92.3257C69.5526 92.7902 69.2069 93.2321 69.0189 93.7265C68.613 94.7603 68.4852 95.9738 67.8463 96.8053C67.4705 97.2922 66.3204 97.1948 65.5161 97.3596C65.7115 96.6929 65.8995 96.0262 66.1175 95.367C66.3279 94.7303 66.6436 94.116 66.7639 93.4643C66.9293 92.5579 66.9518 91.6291 67.042 90.6852L67.0495 90.6927Z" fill="white"/>
<path d="M123.516 90.6927C123.516 92.6778 123.576 94.5655 123.463 96.4382C123.44 96.8278 122.749 97.4645 122.373 97.4645C121.975 97.4645 121.298 96.8502 121.253 96.4532C121.11 95.1573 121.2 93.8314 121.2 92.3931C120.396 92.3482 119.787 92.3182 118.878 92.2658C118.878 93.5168 118.81 94.6329 118.893 95.7416C119.013 97.2922 118.412 97.869 116.713 97.3821V90.7002H123.508L123.516 90.6927Z" fill="white"/>
<path d="M7.86261 94.8352C7.83255 95.427 7.93778 95.9813 7.74234 96.4008C7.53187 96.8503 7.04329 97.4571 6.66745 97.4571C6.26906 97.4571 5.53993 96.8578 5.51738 96.4832C5.39711 94.6105 5.46476 92.7303 5.46476 90.7227H7.66717C7.73482 91.3969 7.80248 92.0037 7.88516 92.7752H9.93723C10.1251 91.5018 10.1101 89.8313 12.4554 90.895C12.4554 92.6778 12.5155 94.5581 12.4027 96.4233C12.3802 96.8128 11.6962 97.4496 11.3128 97.4421C10.9219 97.4421 10.1778 96.7829 10.1928 96.4458C10.2905 94.7229 9.54636 94.3258 7.84756 94.8277L7.86261 94.8352Z" fill="white"/>
<path d="M74.897 90.6854H77.0619C76.9115 92.4982 77.776 93.0825 79.5123 92.9476C80.715 92.8577 81.5268 93.6518 81.617 94.9252C81.7072 96.2511 81.0533 97.1875 79.7679 97.3823C78.4675 97.577 77.122 97.5546 75.7991 97.4871C75.4834 97.4722 74.9497 96.9029 74.9346 96.5658C74.8519 94.6331 74.897 92.7004 74.897 90.6779V90.6854Z" fill="white"/>
<path d="M91.9233 97.4722V90.6629H93.9754C94.0731 91.3071 94.1709 91.9064 94.2911 92.678C94.9676 92.7604 95.6968 92.8428 96.4259 92.9252C97.7413 93.075 98.5381 93.7641 98.5231 95.1275C98.508 96.4459 97.7489 97.3149 96.471 97.4347C95.0428 97.5696 93.5921 97.4647 91.9233 97.4647V97.4722Z" fill="white"/>
<path d="M99.1689 90.6927H101.484C101.484 92.6628 101.544 94.5505 101.431 96.4233C101.409 96.8128 100.74 97.4495 100.364 97.4495C99.9732 97.4495 99.244 96.8577 99.2215 96.4907C99.1012 94.618 99.1689 92.7377 99.1689 90.6927Z" fill="white"/>
<path d="M153.455 62.5868H158.574C156.845 64.2124 155.485 65.4858 153.741 67.1188C153.635 65.3809 153.553 64.1225 153.463 62.5868H153.455Z" fill="white"/>
<path d="M109.226 87.4417C109.384 89.3294 108.467 89.8988 107.152 89.9662C105.701 90.0411 104.566 89.6066 104.228 88.041C104.363 87.8912 104.476 87.7039 104.521 87.7189C105.37 88.0335 106.219 88.6478 107.054 88.6178C107.79 88.5878 108.512 87.8612 109.234 87.4417H109.226Z" fill="white"/>
</svg>
