<svg width="234" height="80" viewBox="0 0 234 80" fill="none" xmlns="http://www.w3.org/2000/svg">
<path d="M167.677 74.3198C167.085 74.5795 166.445 74.4851 165.829 74.4851C151.264 74.4851 136.687 74.4851 122.122 74.4851C121.032 74.4851 119.943 74.5795 118.865 74.6858C117.847 74.792 117.314 74.5323 117.397 73.3636C117.48 71.9116 117.456 70.4595 117.397 69.0075C117.362 68.2047 117.669 67.6381 118.202 67.0833C124.62 60.6258 131.098 54.2156 137.409 47.6519C141.495 43.4021 145.829 39.3411 149.121 34.3947C151.655 30.5816 153.561 26.5561 153.372 21.775C153.206 17.289 149.559 13.4523 145.059 13.0155C138.12 12.3426 134.023 16.9349 133.099 22.3298C132.993 22.9791 132.791 23.6284 132.768 24.2895C132.744 24.9742 132.483 25.1867 131.832 25.1867C128.031 25.1749 124.23 25.1749 120.44 25.1867C119.647 25.1867 119.244 24.8679 119.327 24.077C120.227 14.9162 123.803 7.36086 132.258 2.75684C135.029 1.25758 138.013 0.443024 141.163 0.171505C141.4 0.159699 141.625 0.147896 141.862 0.13609C146.208 -0.22987 150.447 0.313169 154.45 2.03672C160.56 4.66928 164.254 9.46218 166.196 15.6717C168.008 21.4562 166.978 27.0401 164.799 32.5177C163.011 37.0154 160.299 40.9112 157.315 44.7006C154.805 47.8998 152.117 50.9456 149.275 53.8142C146.895 56.2225 144.68 58.7606 142.395 61.2397C142.04 61.5112 141.957 61.7237 142.513 61.8181C150.234 61.8181 157.955 61.8299 165.676 61.8535C166.35 61.8535 167.014 61.9244 167.689 61.9716C167.689 66.0798 167.7 70.1998 167.712 74.308L167.677 74.3198Z" fill="#E52D2D"/>
<path d="M220.501 9.27339C220.3 9.7338 220.086 10.1824 219.921 10.6546C219.388 12.1066 218.689 13.0865 216.877 13.476C213.893 14.1135 212.709 16.687 212.153 19.414C211.975 20.264 211.691 20.4057 210.968 20.5946C208.849 21.1376 208.612 21.4799 208.671 23.7111C208.695 24.6791 208.399 25.5409 208.091 26.4263C207.499 28.1381 207.475 29.8734 208.043 31.5616C208.47 32.8011 208.292 33.8518 207.7 34.9378C206.173 37.7711 204.598 40.5925 203.342 43.5674C201.72 47.3923 200.015 51.1818 198.144 54.9004C194.07 63.0105 190.151 71.2033 186.196 79.3725C185.84 80.1162 185.426 80.1044 184.846 79.8211C181.696 78.3337 178.558 76.8344 175.408 75.347C174.295 74.8157 174.224 74.2845 174.816 73.104C177.291 68.2048 179.387 63.1168 181.968 58.2767C184.585 53.3893 186.918 48.3603 189.381 43.414C193.194 35.7524 196.924 28.0318 200.678 20.3348C201.46 18.7293 202.241 17.1238 203.034 15.5183C203.259 15.2232 203.627 14.8926 202.892 14.7746C197.741 14.751 192.602 14.7156 187.451 14.7038C183.081 14.692 178.712 14.692 174.342 14.7038C173.43 14.7038 172.874 14.5857 172.897 13.4642C172.969 9.67476 172.957 5.8971 172.98 2.10764C179.742 2.09584 186.504 2.07223 193.253 2.07223C201.838 2.07223 210.412 2.08403 218.997 2.04861C220.11 2.04861 220.607 2.30833 220.548 3.51246C220.454 5.4249 220.501 7.34914 220.477 9.26158L220.501 9.27339Z" fill="#E52D2D"/>
<path d="M221.461 38.208C223.971 38.6211 226.493 39.0343 228.708 40.4037C231.881 42.3516 233.101 45.3383 232.971 48.8798C232.852 52.3151 230.969 54.6289 227.796 55.9157C227.654 55.9747 227.535 56.0574 227.393 56.14C227.855 56.8719 228.696 56.6476 229.312 56.9428C233.35 58.8906 234.557 62.8217 233.776 66.7174C232.769 71.7464 229.335 74.5443 223.876 75.2998C219.696 75.8783 215.504 76.0553 211.407 74.9693C206.161 73.5644 202.691 70.4125 202.763 64.6633C202.81 60.3663 205.143 57.3677 209.737 56.2108C207.037 55.0893 205.036 53.6137 204.184 50.8749C202.94 46.9084 204.811 42.1273 208.458 40.203C210.85 38.9399 213.385 38.1843 216.108 38.1607C217.576 38.1489 219.045 38.1371 220.513 38.1253C220.715 38.1371 220.904 38.1607 221.105 38.1725C221.224 38.1725 221.33 38.1843 221.449 38.1962L221.461 38.208ZM218.583 60.0593C216.215 60.0711 214.225 59.8232 212.425 60.9329C211.182 61.7002 210.46 62.6919 210.46 64.2029C210.46 65.714 211.111 66.8827 212.39 67.5084C216.238 69.4208 220.194 69.1375 224.066 67.5674C225.878 66.8355 226.647 65.3835 226.458 63.7543C226.268 62.1252 224.859 60.7794 223.083 60.3663C221.449 59.9767 219.815 60.0947 218.595 60.0711L218.583 60.0593ZM217.801 53.1769C220.087 53.2241 221.875 53.2478 223.604 52.3269C224.847 51.6541 225.392 50.745 225.522 49.4701C225.652 48.0653 225.179 47.0146 223.817 46.3181C220.786 44.7598 217.612 44.8661 214.438 45.5154C212.591 45.8931 211.146 47.7465 211.146 49.1749C211.146 50.8513 212.342 52.1263 214.45 52.8936C215.705 53.354 216.984 53.0943 217.79 53.1769H217.801Z" fill="#FEFEFE"/>
<path d="M30.9167 20.1578C31.0233 16.1558 28.4536 14.4086 25.2446 15.5537C23.5275 16.1676 22.7578 17.7377 22.1894 19.3432C21.9999 19.898 21.9999 20.5119 21.917 21.1022C21.917 21.6334 21.9408 22.1646 21.9408 22.6959C21.9052 26.4263 21.8697 30.1567 21.8342 33.8872C21.7276 33.9698 21.6328 34.0524 21.5263 34.1469C19.7618 34.1469 17.9975 34.1469 16.2331 34.1469C16.1502 34.0642 16.0554 33.9816 15.9725 33.899C15.9607 30.381 15.8778 26.8631 15.9607 23.3451C15.9962 21.7396 15.6291 20.1932 15.5581 18.6113C15.487 16.8169 14.0305 15.5891 12.1003 15.2468C10.7267 15.0107 8.57152 16.085 7.78997 17.4071C6.94921 18.8356 6.58212 20.4056 6.6058 22.0584C6.61764 22.1764 6.62945 22.2827 6.64129 22.4007C6.60576 26.2374 6.57028 30.0623 6.53475 33.899C6.44002 33.9816 6.33345 34.0642 6.23871 34.1587C4.47431 34.1587 2.70986 34.1587 0.945455 34.1587C0.862564 34.076 0.767865 33.9934 0.684974 33.9108C0.684974 26.143 0.661256 18.3752 0.649414 10.5956C2.61513 10.5956 4.58089 10.5956 6.54661 10.5956V13.1573C8.86757 11.0441 11.2122 9.71017 14.2555 9.91085C17.2514 10.1115 19.5132 11.3629 21.0526 14.0545C22.4855 12.1656 24.167 10.7372 26.4406 10.206C29.472 9.50948 32.3377 9.84002 34.7771 11.9531C36.127 13.1219 36.6836 14.6801 36.8731 16.4155C37.323 20.4293 37.1573 24.4548 37.1691 28.4686C37.1691 30.2748 37.1335 32.0928 37.1217 33.899C37.027 33.9816 36.9441 34.0642 36.8494 34.1469C35.0849 34.1469 33.3206 34.1469 31.5562 34.1469C31.4614 34.0642 31.3549 33.9816 31.2601 33.8872C31.2246 29.6373 31.1772 25.3874 31.1417 21.1376C31.2364 20.7834 31.343 20.4175 30.9404 20.1578H30.9167Z" fill="#FEFEFE"/>
<path d="M88.7629 74.6741C88.7392 74.0603 88.7036 73.4464 88.6681 72.6436C86.9274 73.895 85.2577 74.9457 83.1973 75.4179C78.8987 76.4095 74.6358 74.0367 72.4687 70.9319C69.0465 66.0446 68.9755 60.8503 72.0306 55.7741C75.5713 49.9069 82.6407 49.1159 87.7444 52.9526C87.9813 53.1297 88.2063 53.3186 88.7273 53.72V51.3589C90.693 51.3589 92.6587 51.3471 94.6363 51.3353C94.6363 59.1149 94.6363 66.8945 94.6245 74.6741C94.5298 74.7568 94.4232 74.8394 94.3285 74.9221C92.564 74.9221 90.7996 74.9102 89.0352 74.8984C88.9523 74.8158 88.8694 74.745 88.7865 74.6623L88.7629 74.6741ZM82.4039 56.3053C78.5672 55.5734 75.7015 60.0239 75.8436 63.3648C76.0212 67.3077 78.7685 69.9993 82.9604 70.0111C86.0156 70.0111 89.0471 67.5084 88.9879 63.046C88.9286 58.8788 86.2406 55.8567 82.4039 56.3053Z" fill="#FEFEFE"/>
<path d="M68.6799 74.9103C66.9155 74.9103 65.1512 74.9103 63.3868 74.9221C63.292 74.8394 63.2091 74.7568 63.1144 74.6624C63.0907 71.5104 62.996 68.3584 63.0907 65.2182C63.1499 63.2586 62.8183 61.3461 62.7354 59.3983C62.6644 57.4858 61.0894 56.2463 59.1119 56.2935C55.7607 56.3761 53.6884 58.6663 53.7595 62.1961C53.7713 62.4204 53.795 62.6329 53.8068 62.8572C53.7595 66.8001 53.7121 70.7312 53.6766 74.6742C53.5819 74.7568 53.4871 74.8394 53.3805 74.9221C51.6161 74.9221 49.8517 74.9103 48.0873 74.8985C48.0044 74.8158 47.9334 74.745 47.8505 74.6624C47.8505 74.5679 47.8505 74.4617 47.8387 74.3672C47.8742 74.3436 47.9571 74.2964 47.9571 74.2846C47.9334 74.202 47.8978 74.1311 47.8623 74.0485C47.8623 63.6717 47.8623 53.295 47.8623 42.9183C47.8978 42.8828 47.9807 42.8474 47.9689 42.8238C47.9334 42.7412 47.886 42.6703 47.8387 42.5877C47.7676 42.4815 47.7794 42.387 47.8623 42.3044C49.7925 42.3044 51.7345 42.3044 53.6647 42.3044V53.4485C54.6831 52.8346 55.5357 52.3152 56.4002 51.8076C59.6803 49.8361 64.263 50.6388 66.3708 52.5631C67.8629 53.9325 68.6208 55.5616 68.7036 57.5449C68.6563 57.8872 68.5971 58.2414 68.9168 58.5011C68.9168 63.6836 68.9287 68.8778 68.9405 74.0603C68.6563 74.2846 68.7036 74.6152 68.6799 74.9221V74.9103Z" fill="#FEFEFE"/>
<path d="M38.3412 10.5131C38.5662 10.4895 38.7794 10.4659 39.0044 10.4305C40.5793 10.5721 42.1542 10.5839 43.7292 10.4305C43.8239 10.4659 43.9186 10.5013 44.0252 10.5367C44.0252 12.9568 43.9778 15.3769 44.0252 17.7969C44.0489 19.1191 43.7528 20.4531 44.2502 21.7516C44.3094 23.0856 44.1436 24.4786 44.4752 25.7418C45.1265 28.1737 46.4646 29.4368 49.1053 29.2361C51.3315 29.0708 52.7052 27.6896 53.0722 25.1633C53.1315 24.762 53.1433 24.337 53.1788 23.9356C53.5104 23.5933 53.4275 23.1683 53.4275 22.7669C53.4275 18.6941 53.4275 14.6331 53.4156 10.5603C53.5104 10.5249 53.6051 10.4777 53.6998 10.4423C55.3813 10.5957 57.051 10.5957 58.7325 10.4423C58.8391 10.4659 58.9575 10.5013 59.0641 10.5249C59.076 14.8928 59.0996 19.2726 59.1115 23.6405C58.9338 25.0571 58.8628 26.4855 58.5549 27.8667C57.8089 31.1132 54.5051 34.2415 50.8105 34.5957C48.4185 34.82 46.1804 34.938 43.966 33.9346C40.3898 32.3173 38.8031 29.3896 38.436 25.6474C38.3649 24.9745 38.3412 24.3134 38.3057 23.6405C38.3175 19.2726 38.3412 14.8928 38.3531 10.5249L38.3412 10.5131Z" fill="#FEFEFE"/>
<path d="M95.5476 34.5128C91.2372 34.2531 88.3242 31.8331 86.2401 28.3033C81.7639 20.7244 87.1756 11.2684 95.2042 10.1469C100.166 9.46224 104.606 10.206 108.254 13.9364C109.26 14.9753 109.035 15.5301 107.816 16.0141C107.437 16.1676 107.093 16.3801 106.738 16.5808C105.364 17.3835 104.381 17.8793 102.558 16.6634C98.579 14.019 91.6872 15.0107 90.6096 21.9167C90.1241 25.0333 93.0845 29.2949 97.0041 29.2477C99.5974 29.2123 102.013 28.9998 103.896 26.9929C104.239 26.627 104.453 26.745 104.808 26.9929C105.85 27.7367 106.904 28.4686 107.993 29.1415C108.739 29.6019 108.929 30.0269 108.254 30.6998C106.134 32.8365 103.635 34.2177 100.604 34.5128C100.059 34.4538 99.4908 34.3239 99.0053 34.7253C98.3777 34.7253 97.762 34.7253 97.1344 34.7253C96.6489 34.3239 96.1042 34.4538 95.5594 34.5128H95.5476Z" fill="#FEFEFE"/>
<path d="M63.2438 26.7332C64.7951 28.4922 66.595 29.4957 68.9988 29.2477C69.8396 29.1651 70.3724 28.8346 70.7395 28.1617C71.154 27.3943 70.7395 26.7687 70.2185 26.2138C69.1527 25.1041 67.6725 24.6791 66.3699 23.959C64.9845 23.1799 63.5872 22.4362 62.4741 21.2556C58.9453 17.5606 60.0939 12.3073 64.8661 10.4539C68.2528 9.14353 72.8711 10.0997 75.3696 12.8976C75.9499 13.5469 76.0327 13.96 75.3222 14.4913C75.038 14.7038 74.8131 14.9989 74.5407 15.2586C73.8657 15.8961 73.2737 16.8169 72.4684 17.0884C71.6158 17.3717 71.0829 16.1676 70.2895 15.8371C69.354 15.4475 68.4067 14.9871 67.341 15.3294C65.9437 15.778 65.7186 16.8759 66.8081 17.8676C67.0804 18.1155 67.3883 18.2571 67.7081 18.4224C69.4488 19.3196 71.2014 20.205 72.8947 21.1966C75.3933 22.6604 76.9683 25.7298 76.4828 28.0318C75.6775 31.9157 73.5342 33.899 70.029 34.5601C66.1805 35.292 62.9951 34.3594 60.2715 31.5734C59.6795 30.9595 59.6084 30.5935 60.2597 29.9797C61.3017 28.9762 62.2254 27.8665 63.2556 26.745L63.2438 26.7332Z" fill="#FEFEFE"/>
<path d="M109.238 42.9299C109.238 53.3066 109.238 63.6833 109.238 74.0601C108.965 74.2844 109.001 74.6149 108.977 74.9219C107.213 74.9219 105.448 74.9337 103.684 74.9455L103.376 74.6858L103.293 74.7212C103.293 74.6031 103.293 74.4851 103.281 74.367C103.281 69.704 103.281 65.0527 103.281 60.3897C103.317 60.2834 103.364 60.1772 103.4 60.071C103.885 59.646 104.75 59.8939 105.022 59.1266C105.46 58.6307 105.259 58.0405 105.259 57.4856C105.271 52.3622 105.259 47.2387 105.259 42.1271C105.46 42.1153 105.661 42.1035 105.863 42.0917C106.952 42.5757 108.101 42.1979 109.214 42.3278C109.297 42.4222 109.297 42.5167 109.238 42.6229C109.202 42.6583 109.119 42.6937 109.131 42.7173C109.155 42.8 109.19 42.8708 109.226 42.9535L109.238 42.9299Z" fill="#FEFEFE"/>
<path d="M96.188 42.3277C97.5143 42.3277 99.2076 41.7493 100.037 42.5638C100.664 43.1777 100.226 44.9012 100.238 46.129C100.238 50.2018 100.262 54.2745 100.238 58.3473C100.238 59.4688 100.581 60.1417 101.836 60.0355C101.836 64.9228 101.836 69.7983 101.836 74.6857C101.718 74.7683 101.612 74.851 101.493 74.9336C99.7287 74.9218 97.9761 74.8982 96.2117 74.8864C96.2117 64.0374 96.188 53.1885 96.188 42.3277Z" fill="#FEFEFE"/>
<path d="M77.7979 33.8872C77.7979 26.1193 77.7742 18.3397 77.7742 10.5719C79.7399 10.5719 81.7174 10.5719 83.6831 10.5719C83.6831 18.3515 83.6714 26.1312 83.6595 33.899C83.5648 33.9816 83.47 34.0642 83.3635 34.1587C81.5991 34.1587 79.8346 34.1587 78.0702 34.1587C77.9755 34.076 77.8926 33.9816 77.7979 33.899V33.8872Z" fill="#FEFEFE"/>
<path d="M223.308 24.4312C225.475 28.8817 224.824 33.8753 220.679 35.1148C221.946 33.2496 221.508 31.3136 221.129 29.2713C220.644 29.6608 220.833 30.4282 219.886 30.4636C220.585 27.831 216.464 27.0519 217.695 23.9944C215.149 25.1277 215.801 27.5241 215.256 29.5428C214.747 29.1296 214.38 28.8345 213.87 28.4331C213.444 30.7351 212.023 32.86 214.309 35.1621C211.857 34.4537 210.436 32.1754 210.176 29.8497C209.915 27.5713 211.301 25.7297 211.478 23.593C211.526 23.0381 212.047 23.2506 212.307 23.4985C212.722 23.8763 213.065 24.3367 213.491 24.8207C214.451 23.6638 214.711 22.3771 214.593 20.9604C214.427 19.0244 215.09 17.4307 216.618 16.2147C216.89 16.0023 217.222 15.6363 217.565 15.9078C217.731 16.0377 217.707 16.4745 217.683 16.7578C217.494 18.5522 218.145 19.957 219.483 21.1611C220.727 22.2826 221.319 23.8173 221.781 25.3992C221.875 25.7297 221.461 26.3554 222.16 26.3672C222.716 26.3672 222.823 25.7887 222.988 25.3638C223.095 25.0922 222.906 24.7381 223.32 24.4193L223.308 24.4312Z" fill="#FEFEFE"/>
<path d="M80.8059 0.879964C83.0913 0.89177 84.5123 2.332 84.465 4.55137C84.4058 6.91241 82.8664 8.39986 80.4862 8.36444C78.6744 8.34083 76.8508 6.4284 76.8152 4.51596C76.7797 2.41464 78.4849 0.856354 80.8059 0.879964Z" fill="#FEFEFE"/>
<path d="M220.502 9.27334C220.514 7.36091 220.478 5.43665 220.573 3.52421C220.632 2.32008 220.135 2.06038 219.022 2.06038C210.436 2.0958 201.863 2.07217 193.278 2.08398C186.516 2.08398 179.755 2.10759 173.005 2.11939C173.159 1.37567 173.763 1.76525 174.118 1.76525C189.204 1.74164 204.291 1.75344 219.389 1.71802C220.525 1.71802 220.975 2.03677 220.916 3.20548C220.833 4.81099 220.916 6.41649 220.893 8.0338C220.893 8.47059 221.082 8.99002 220.525 9.27334H220.502Z" fill="#8E2221"/>
<path d="M96.1879 42.328C96.1879 53.177 96.2116 64.0259 96.2116 74.8867C95.8919 74.7686 95.9274 74.5089 95.9274 74.2492C95.9274 63.719 95.9274 53.177 95.9274 42.6468C95.9274 42.5405 95.9274 42.4343 95.9748 42.3516C95.9866 42.328 96.1169 42.3516 96.1879 42.3516V42.328Z" fill="#D9D9D9"/>
<path d="M105.27 42.1154C105.27 47.2388 105.27 52.3622 105.27 57.4739C105.27 58.0169 105.471 58.619 105.033 59.1148C105.009 53.649 104.998 48.1832 104.974 42.7292C104.974 42.4695 104.962 42.2098 105.282 42.1154H105.27Z" fill="#D9D9D9"/>
<path d="M101.836 74.6859C101.836 69.7986 101.836 64.923 101.836 60.0357C102.251 60.1419 102.192 60.4843 102.192 60.7794C102.192 65.2063 102.192 69.6451 102.192 74.072C102.192 74.4144 102.275 74.8158 101.813 74.9692C101.825 74.8748 101.836 74.7685 101.848 74.6741L101.836 74.6859Z" fill="#525252"/>
<path d="M53.392 10.5483C53.392 14.6211 53.4038 18.6821 53.4038 22.7548C53.4038 23.1562 53.4985 23.593 53.1551 23.9235C53.1315 19.6147 53.1196 15.3058 53.0959 10.9851C53.0959 10.7608 53.1315 10.5837 53.392 10.5483Z" fill="#D9D9D9"/>
<path d="M59.0992 23.6284C59.0873 19.2605 59.0636 14.8807 59.0518 10.5128C59.4307 10.6663 59.3715 10.9968 59.3715 11.3038C59.3715 15.1287 59.3596 18.9417 59.3359 22.7666C59.3359 23.0735 59.336 23.3923 59.0873 23.6284H59.0992Z" fill="#525252"/>
<path d="M38.3414 10.5128C38.3295 14.8808 38.3059 19.2605 38.294 23.6284C37.8796 23.1326 38.0453 22.5423 38.0335 21.9875C38.0098 18.6348 38.0098 15.2703 38.0335 11.9177C38.0335 11.4454 37.773 10.8788 38.3414 10.501V10.5128Z" fill="#525252"/>
<path d="M167.675 74.3199C167.675 70.2117 167.663 66.0917 167.652 61.9835C168.007 62.137 167.995 62.4557 167.995 62.7627C167.995 66.3514 167.995 69.9402 167.995 73.529C167.995 73.8359 167.995 74.1547 167.663 74.3199H167.675Z" fill="#8E2221"/>
<path d="M44.2382 21.7514C43.7408 20.4647 44.0487 19.1189 44.0132 17.7967C43.954 15.3766 44.0132 12.9566 44.0132 10.5365C44.2737 10.5719 44.3211 10.7372 44.3211 10.9615C44.2974 14.5503 44.2737 18.1508 44.25 21.7396L44.2382 21.7514Z" fill="#D9D9D9"/>
<path d="M94.6123 51.347C92.6466 51.347 90.6809 51.3587 88.7034 51.3705C90.6691 50.7567 92.6348 50.7921 94.6123 51.347Z" fill="#525252"/>
<path d="M83.6831 10.5483C81.7174 10.5483 79.7399 10.5483 77.7742 10.5483C79.7399 9.96981 81.7056 9.98161 83.6831 10.5483Z" fill="#525252"/>
<path d="M6.51089 10.5603C4.54518 10.5603 2.57948 10.5603 0.61377 10.5603C2.57948 9.97003 4.54518 9.98183 6.51089 10.5603Z" fill="#525252"/>
<path d="M53.6647 42.3042C51.7346 42.3042 49.7925 42.3042 47.8623 42.3042C49.7925 41.7848 51.7346 41.7966 53.6647 42.3042Z" fill="#D9D9D9"/>
<path d="M58.7212 10.4302C57.0397 10.5837 55.37 10.5837 53.6885 10.4302C55.37 10.0761 57.0397 10.0761 58.7212 10.4302Z" fill="#525252"/>
<path d="M43.7294 10.4301C42.1545 10.5836 40.5796 10.5836 39.0046 10.4301C40.5796 10.0641 42.1545 10.0641 43.7294 10.4301Z" fill="#525252"/>
<path d="M220.537 38.1253C219.069 38.1371 217.6 38.1489 216.132 38.1607C217.6 37.7003 219.069 37.7476 220.537 38.1253Z" fill="#525252"/>
<path d="M109.225 42.3163C108.112 42.1864 106.963 42.5642 105.874 42.0802C106.998 42.0802 108.147 41.6906 109.225 42.3163Z" fill="#D9D9D9"/>
<path d="M21.9412 22.6961C21.9412 22.1648 21.9175 21.6336 21.9175 21.1024C22.3793 21.6218 22.2728 22.153 21.9412 22.6961Z" fill="#525252"/>
<path d="M98.9941 34.7373C99.4796 34.3359 100.036 34.4657 100.593 34.5248C100.084 34.8081 99.5507 34.8317 98.9941 34.7373Z" fill="#D9D9D9"/>
<path d="M95.5483 34.513C96.0931 34.454 96.6496 34.3241 97.1233 34.7255C96.5667 34.8435 96.0457 34.7609 95.5483 34.513Z" fill="#D9D9D9"/>
<path d="M108.976 74.9219C109 74.615 108.952 74.2962 109.237 74.0601C109.284 74.3788 109.521 74.7684 108.976 74.9219Z" fill="#D9D9D9"/>
<path d="M68.6797 74.9102C68.7034 74.6032 68.656 74.2845 68.9402 74.0484C68.9758 74.3671 69.2244 74.7567 68.6797 74.9102Z" fill="#D9D9D9"/>
<path d="M202.905 14.7746C203.639 14.8926 203.272 15.2232 203.047 15.5183C203 15.2704 202.952 15.0225 202.905 14.7746Z" fill="#8E2221"/>
<path d="M30.9167 20.1579C31.3193 20.4176 31.2009 20.7835 31.118 21.1377C30.7865 20.8662 30.893 20.5002 30.9167 20.1579Z" fill="#525252"/>
<path d="M68.9165 58.501C68.5968 58.2413 68.6679 57.8871 68.7034 57.5448C69.0705 57.8045 68.9876 58.1468 68.9165 58.501Z" fill="#D9D9D9"/>
<path d="M53.8064 62.8688C53.7945 62.6445 53.7709 62.432 53.759 62.2077C54.0788 62.4084 54.1024 62.6209 53.8064 62.8688Z" fill="#525252"/>
<path d="M141.837 0.159813C141.6 0.171618 141.375 0.183422 141.138 0.195227C141.363 -0.0526814 141.588 -0.0644851 141.837 0.159813Z" fill="#8E2221"/>
<path d="M142.476 61.8299C141.92 61.7472 142.015 61.5229 142.358 61.2514C142.393 61.4403 142.441 61.641 142.476 61.8299Z" fill="#8E2221"/>
<path d="M221.46 38.208C221.342 38.208 221.235 38.1962 221.117 38.1844C221.247 38.0073 221.354 38.0545 221.46 38.208Z" fill="#525252"/>
<path d="M0.649808 33.8871C0.732699 33.9698 0.82747 34.0524 0.910361 34.1351C0.68537 34.1941 0.602441 34.0996 0.649808 33.8871Z" fill="#D9D9D9"/>
<path d="M6.62924 22.3889C6.6174 22.2708 6.60559 22.1646 6.59375 22.0465C6.75953 22.141 6.88975 22.2472 6.62924 22.3889Z" fill="#525252"/>
<path d="M6.21533 34.135C6.31007 34.0524 6.41664 33.9697 6.51137 33.8753C6.55874 34.1232 6.44032 34.194 6.21533 34.135Z" fill="#D9D9D9"/>
<path d="M15.9608 33.8871C16.0437 33.9698 16.1385 34.0524 16.2214 34.1351C15.9964 34.1941 15.9135 34.0996 15.9608 33.8871Z" fill="#D9D9D9"/>
<path d="M21.5144 34.1351C21.621 34.0524 21.7157 33.9698 21.8223 33.8754C21.8578 34.1351 21.7394 34.1941 21.5144 34.1351Z" fill="#D9D9D9"/>
<path d="M103.399 60.0594C103.363 60.1657 103.316 60.2719 103.28 60.3782C103.032 60.1657 103.126 60.083 103.399 60.0594Z" fill="#525252"/>
<path d="M109.238 42.93C109.203 42.8473 109.155 42.7765 109.143 42.6939C109.143 42.6703 109.214 42.6348 109.25 42.5994C109.25 42.7057 109.25 42.8119 109.25 42.9182L109.238 42.93Z" fill="#D9D9D9"/>
<path d="M47.8381 42.5995C47.8855 42.6822 47.9329 42.753 47.9684 42.8356C47.9684 42.8474 47.8973 42.8946 47.8618 42.9301C47.8618 42.8238 47.8618 42.7176 47.85 42.6113L47.8381 42.5995Z" fill="#D9D9D9"/>
<path d="M31.224 33.8871C31.3187 33.9698 31.4253 34.0524 31.52 34.1469C31.295 34.2059 31.1766 34.1469 31.224 33.8871Z" fill="#D9D9D9"/>
<path d="M36.8257 34.1351C36.9204 34.0524 37.0034 33.9698 37.0981 33.8871C37.1336 34.1114 37.0625 34.2059 36.8257 34.1351Z" fill="#D9D9D9"/>
<path d="M47.8499 74.0484C47.8854 74.131 47.9327 74.2018 47.9446 74.2845C47.9446 74.3081 47.8735 74.3435 47.8262 74.3671C47.8262 74.2609 47.8262 74.1546 47.838 74.0484H47.8499Z" fill="#D9D9D9"/>
<path d="M77.7973 33.8871C77.892 33.9698 77.9749 34.0642 78.0696 34.1469C77.8446 34.2059 77.7499 34.1114 77.7973 33.8871Z" fill="#D9D9D9"/>
<path d="M83.3743 34.1351C83.469 34.0524 83.5637 33.9698 83.6703 33.8754C83.7177 34.1233 83.6111 34.1941 83.3743 34.1351Z" fill="#D9D9D9"/>
<path d="M103.281 74.3553C103.281 74.4734 103.281 74.5914 103.293 74.7095C103.068 74.6032 103.033 74.4852 103.281 74.3553Z" fill="#525252"/>
<path d="M47.8499 74.6742C47.9328 74.7568 48.0038 74.8276 48.0867 74.9103C47.8854 74.9575 47.8025 74.8749 47.8499 74.6742Z" fill="#D9D9D9"/>
<path d="M53.3799 74.9339C53.4746 74.8512 53.5693 74.7686 53.6759 74.6859C53.7233 74.9339 53.6049 75.0047 53.3799 74.9339Z" fill="#D9D9D9"/>
<path d="M63.1268 74.6742C63.2215 74.7568 63.3044 74.8394 63.3991 74.9339C63.1623 75.0047 63.0913 74.8985 63.1268 74.6742Z" fill="#D9D9D9"/>
<path d="M88.7627 74.6741C88.8456 74.7567 88.9284 74.8275 89.0113 74.9102C88.7982 74.9692 88.7153 74.8866 88.7627 74.6741Z" fill="#D9D9D9"/>
<path d="M94.3047 74.9339C94.3994 74.8512 94.506 74.7686 94.6007 74.6859C94.6363 74.9339 94.5297 75.0047 94.3047 74.9339Z" fill="#D9D9D9"/>
<path d="M101.836 74.6859C101.824 74.7804 101.813 74.8866 101.801 74.9811C101.694 74.9693 101.599 74.9457 101.493 74.9339C101.611 74.8512 101.718 74.7686 101.836 74.6859Z" fill="#D9D9D9"/>
<path d="M103.375 74.6741L103.683 74.9338C103.458 74.9928 103.34 74.9338 103.375 74.6741Z" fill="#D9D9D9"/>
</svg>
