<svg width="222" height="60" viewBox="0 0 222 60" fill="none" xmlns="http://www.w3.org/2000/svg">
<path d="M217.944 34.1722C218.427 34.782 218.869 35.2633 219.27 35.6161C219.673 35.969 220.018 36.2418 220.308 36.4344C220.597 36.6269 220.83 36.7792 221.007 36.8918C221.183 37.004 221.272 37.1241 221.272 37.2526C221.272 37.4129 221.175 37.5493 220.983 37.6619C220.79 37.7741 220.548 37.8302 220.259 37.8302C219.905 37.8302 219.399 37.7498 218.74 37.5895C218.081 37.4292 217.358 37.1241 216.57 36.675C215.782 36.2259 214.987 35.5839 214.183 34.7498C213.38 33.9156 212.64 32.8245 211.965 31.4769C211.097 32.1829 209.907 32.9371 208.397 33.739C206.885 34.5413 205.27 35.2792 203.55 35.953C201.83 36.6269 200.118 37.1885 198.415 37.6376C196.711 38.0867 195.248 38.3115 194.026 38.3115C193.351 38.3115 192.668 38.2474 191.977 38.1189C191.286 37.9905 190.651 37.7582 190.072 37.4212C189.494 37.0843 189.02 36.611 188.65 36.0012C188.28 35.3914 188.095 34.6054 188.095 33.6428C188.095 32.5198 188.642 31.3086 189.735 30.0091C190.828 28.7095 192.21 27.5062 193.881 26.3992C195.553 25.2922 197.37 24.3777 199.331 23.6558C201.292 22.9338 203.14 22.573 204.876 22.573C205.423 22.573 205.913 22.581 206.347 22.5969C206.781 22.6132 207.175 22.6852 207.529 22.8137C208.139 23.1987 208.525 23.6398 208.686 24.1371C208.847 24.6347 208.863 25.1319 208.734 25.6291C208.605 26.1267 208.357 26.5918 207.987 27.0249C207.617 27.4581 207.191 27.803 206.709 28.0599H206.13C205.969 28.0599 205.768 28.0516 205.527 28.0357C205.286 28.0198 205.021 28.0118 204.732 28.0118C203.735 28.0118 202.707 28.1721 201.646 28.4931C200.584 28.8137 199.572 29.223 198.608 29.7203C197.643 30.2175 196.759 30.7549 195.955 31.3325C195.152 31.91 194.508 32.4558 194.026 32.9689C195.345 32.9689 196.638 32.8086 197.908 32.4876C199.178 32.167 200.408 31.7656 201.597 31.2843C202.787 30.803 203.92 30.2736 204.997 29.6964C206.074 29.1188 207.07 28.5894 207.987 28.1081C208.903 27.6268 209.739 27.2254 210.494 26.9048C211.25 26.5838 211.885 26.4235 212.399 26.4235C213.203 26.4235 213.822 26.6641 214.256 27.1454C214.69 27.6268 215.067 28.2441 215.389 28.9983C215.71 29.7525 216.048 30.5866 216.401 31.5011C216.755 32.4156 217.269 33.3058 217.944 34.1722Z" fill="#F5E2C3"/>
<path d="M171.361 35.2793C171.651 35.2793 172.02 35.2713 172.47 35.2554C172.921 35.2391 173.403 35.2232 173.917 35.2072C174.432 35.1909 174.914 35.175 175.364 35.1591C175.814 35.1428 176.183 35.1349 176.473 35.1349C177.405 35.1349 178.032 35.2391 178.354 35.4479C178.675 35.6643 178.78 35.9129 178.667 36.2097C178.554 36.4984 178.265 36.7956 177.799 37.1082C177.333 37.4129 176.794 37.6858 176.183 37.9105C175.219 38.2713 174.07 38.576 172.736 38.833C171.401 39.0975 170.091 39.226 168.805 39.226C166.588 39.226 164.9 38.7686 163.742 37.8545C162.585 36.94 162.151 35.7124 162.44 34.1722C162.569 33.4021 162.89 32.7363 163.405 32.175C163.919 31.6133 164.53 31.1081 165.237 30.6587C165.944 30.2096 166.708 29.8086 167.528 29.4558C168.348 29.1026 169.127 28.7819 169.866 28.4932C170.059 28.3969 170.389 28.2764 170.855 28.132C171.321 27.9876 171.795 27.8352 172.278 27.6749C172.76 27.5142 173.186 27.3698 173.555 27.2417C173.925 27.1133 174.094 27.017 174.062 26.953C173.998 26.8567 173.644 26.7764 173.001 26.7123C172.358 26.6479 171.554 26.616 170.59 26.616C169.69 26.616 168.95 26.6881 168.371 26.8324C167.793 26.9768 167.102 27.0974 166.298 27.1936C165.784 26.9689 165.382 26.6721 165.093 26.303C164.803 25.9343 164.651 25.5329 164.634 25.0997C164.619 24.6665 164.755 24.2417 165.044 23.8244C165.334 23.4072 165.784 23.0543 166.395 22.7656C166.812 22.6693 167.415 22.5488 168.203 22.4044C168.99 22.26 169.947 22.188 171.072 22.188C171.683 22.188 172.446 22.2683 173.363 22.4286C174.279 22.589 175.163 22.8376 176.015 23.1745C176.867 23.5034 177.598 23.9366 178.209 24.4661C178.819 24.9955 179.125 25.6371 179.125 26.4072C179.125 27.1133 178.884 27.7469 178.402 28.3245C177.92 28.9021 177.309 29.4315 176.569 29.9049C175.83 30.3862 175.034 30.8353 174.182 31.2525C173.331 31.6694 172.518 32.0306 171.747 32.3516C171.49 32.4479 171.136 32.576 170.686 32.7363C170.236 32.897 169.778 33.0652 169.312 33.2418C168.846 33.4184 168.436 33.6026 168.082 33.7951C167.729 33.9877 167.536 34.1643 167.504 34.3166C167.439 34.6376 167.737 34.8783 168.396 35.0386C169.055 35.1993 170.043 35.2793 171.361 35.2793Z" fill="#F5E2C3"/>
<path d="M146.904 22.2363C147.965 22.2363 148.801 22.4929 149.412 23.0064C150.031 23.5199 150.488 24.1457 150.794 24.8835C151.099 25.6214 151.293 26.3836 151.373 27.1696C151.453 27.9556 151.493 28.6215 151.493 29.1672C151.493 32.4397 150.931 35.7206 149.813 39.0094C148.696 42.2986 147.073 45.3389 144.943 48.1301C142.813 50.9217 140.209 53.3362 137.123 55.3736C134.037 57.4114 130.516 58.7989 126.563 59.5371C126.209 59.6012 125.775 59.6732 125.261 59.7535C124.746 59.8339 124.248 59.8979 123.766 59.9461C123.284 59.9942 122.874 60.0101 122.536 59.9942C122.199 59.9783 122.03 59.9059 122.03 59.7778C122.03 59.5531 122.247 59.2965 122.681 59.0077C123.115 58.7189 123.685 58.39 124.393 58.0208C125.1 57.6521 125.904 57.2507 126.804 56.8175C127.704 56.3844 128.62 55.8951 129.553 55.3497C131.867 54.0343 134.045 52.3899 136.087 50.4165C138.128 48.4431 139.904 46.2852 141.415 43.9431C142.926 41.6006 144.115 39.1299 144.984 36.5309C145.851 33.9318 146.285 31.349 146.285 28.7822C145.385 29.7766 144.34 30.8355 143.151 31.9584C141.962 33.0817 140.708 34.1164 139.39 35.0631C138.072 36.0094 136.714 36.7958 135.315 37.4215C133.917 38.0468 132.559 38.3599 131.24 38.3599C130.758 38.3599 130.195 38.2795 129.553 38.1192C128.909 37.9589 128.291 37.6538 127.696 37.2047C127.101 36.7556 126.595 36.1219 126.177 35.3037C125.759 34.4855 125.55 33.4187 125.55 32.1028C125.55 31.6537 125.598 31.0841 125.695 30.3944C125.791 29.7046 125.912 28.9906 126.056 28.2527C126.201 27.5144 126.37 26.7925 126.563 26.0868C126.756 25.3808 126.965 24.7873 127.189 24.306C127.672 23.8247 128.186 23.4877 128.733 23.2952C129.279 23.1027 129.785 23.0784 130.252 23.2228C130.718 23.3672 131.112 23.6723 131.433 24.1373C131.754 24.6027 131.932 25.2523 131.963 26.0868C131.16 28.1083 130.758 30.2098 130.758 32.3916C130.758 32.8411 130.903 33.0654 131.192 33.0654C132.253 33.0654 133.298 32.8009 134.31 32.2715C135.323 31.742 136.304 31.0761 137.236 30.2738C138.168 29.4719 139.076 28.5976 139.968 27.6509C140.852 26.7046 141.696 25.8299 142.5 25.0279C143.312 24.2256 144.075 23.5597 144.799 23.0303C145.522 22.5009 146.229 22.2363 146.904 22.2363Z" fill="#F5E2C3"/>
<path d="M100.716 22.4768C101.166 22.4768 101.817 22.517 102.669 22.5969C103.521 22.6773 104.453 22.8296 105.466 23.0544C106.478 23.2791 107.507 23.5838 108.552 23.9689C109.597 24.3539 110.553 24.8432 111.421 25.4367C112.289 26.0305 112.997 26.7525 113.543 27.6026C114.089 28.453 114.363 29.4558 114.363 30.6106C114.363 31.6695 114.065 32.5919 113.471 33.3783C112.876 34.1643 112.104 34.8222 111.156 35.3517C110.208 35.8811 109.139 36.3143 107.949 36.6512C106.76 36.9881 105.587 37.2527 104.429 37.4452C103.272 37.6377 102.187 37.7662 101.174 37.8302C100.161 37.8943 99.3499 37.9265 98.7388 37.9265C97.7102 37.9265 96.7135 37.9106 95.749 37.8784C94.7845 37.8462 93.9489 37.7499 93.2416 37.5896C92.4057 39.4508 91.6665 41.384 91.0236 43.3892C90.3803 45.3948 89.8095 47.2237 89.3115 48.8761C88.8132 50.5285 88.3633 51.8921 87.9613 52.9673C87.5596 54.0421 87.1819 54.5795 86.8284 54.5795C86.4741 54.5795 86.2015 54.2986 86.0084 53.7374C85.8153 53.1757 85.6868 52.4295 85.6227 51.4991C85.5586 50.5687 85.5665 49.4855 85.6466 48.2504C85.727 47.0149 85.8798 45.7154 86.1047 44.3518C86.3296 42.9882 86.6111 41.6083 86.9486 40.2125C87.2862 38.8167 87.6962 37.4933 88.1786 36.2419C86.6031 35.5359 85.4941 34.9825 84.8512 34.5816C84.2083 34.1802 83.8867 33.8517 83.8867 33.5947C83.8867 33.4344 84.0635 33.3139 84.4169 33.2339C84.7704 33.1536 85.221 33.1134 85.7672 33.1134C86.0884 33.1134 86.6031 33.1297 87.3104 33.1615C88.0174 33.1937 88.7889 33.2259 89.6252 33.2578C90.204 31.8783 90.8548 30.5787 91.5781 29.3595C92.3014 28.14 93.0326 27.0811 93.7718 26.1829C93.5791 25.6694 93.523 25.1399 93.6034 24.5946C93.6838 24.0492 93.8849 23.5035 94.2061 22.9581C94.3988 22.9259 94.64 22.8778 94.9294 22.8137C95.2188 22.7497 95.6124 22.6932 96.1108 22.6451C96.6092 22.5969 97.2282 22.5572 97.9674 22.5249C98.7066 22.4927 99.6229 22.4768 100.716 22.4768ZM95.2188 33.1615C95.7972 33.1615 96.5531 33.1376 97.4849 33.0895C98.4172 33.0414 99.398 32.969 100.427 32.8727C101.455 32.7765 102.492 32.6643 103.537 32.5358C104.582 32.4077 105.514 32.247 106.334 32.0545C107.153 31.862 107.829 31.6456 108.359 31.4049C108.89 31.1643 109.155 30.8834 109.155 30.5624C109.155 30.1774 108.801 29.8166 108.094 29.4797C107.387 29.1428 106.511 28.8619 105.466 28.6376C104.421 28.4128 103.312 28.2442 102.138 28.132C100.965 28.0198 99.9123 27.9956 98.9801 28.06C98.3372 28.8301 97.6939 29.5919 97.0511 30.346C96.4082 31.1002 95.7972 32.0386 95.2188 33.1615Z" fill="#F5E2C3"/>
<path d="M63.489 15.4016C64.2927 15.466 65.1529 15.5703 66.0688 15.7147C66.9852 15.859 67.837 16.0357 68.6248 16.2441C69.4122 16.4525 70.1032 16.6693 70.6979 16.8937C71.293 17.1184 71.6867 17.3109 71.8797 17.4712C71.8797 17.6319 71.7508 17.8324 71.494 18.0731C71.2369 18.3137 70.9073 18.5381 70.5052 18.7469C70.1032 18.9554 69.6211 19.1479 69.0583 19.3245C68.4962 19.5007 67.9095 19.6049 67.2984 19.6371C66.1735 19.7334 64.9598 19.8217 63.6578 19.9021C62.3557 19.982 61.0294 20.0624 59.6795 20.1427C58.3293 20.2227 57.003 20.303 55.7009 20.3834C54.3988 20.4633 53.1696 20.5516 52.0121 20.6479C51.1765 20.7119 50.4528 20.7764 49.8422 20.8404C49.2316 20.9045 48.6687 20.9609 48.1544 21.0091C47.6401 21.0572 47.1501 21.1053 46.6836 21.1535C46.2175 21.2016 45.7111 21.2414 45.1646 21.2736C44.7144 21.1133 44.345 20.8726 44.0556 20.5516C43.7662 20.2306 43.5735 19.8778 43.4772 19.4928C43.3805 19.1077 43.3884 18.7067 43.5011 18.2895C43.6133 17.8726 43.8307 17.5035 44.1523 17.1825C47.174 16.6049 50.3485 16.1717 53.6756 15.8829C57.003 15.5941 60.2742 15.4338 63.489 15.4016Z" fill="#F5E2C3"/>
<path d="M52.7353 23.1989C54.2786 23.1989 55.4278 23.7685 56.1833 24.9074C56.9388 26.0466 57.2521 27.4504 57.1236 29.119C57.8954 28.2527 58.7067 27.3943 59.5589 26.5438C60.4108 25.6938 61.3108 24.9316 62.2594 24.2578C63.2079 23.584 64.2122 23.0303 65.2731 22.5971C66.3339 22.1639 67.4589 21.9475 68.6487 21.9475C70.2242 21.9475 71.5262 22.2685 72.5548 22.9101C73.5834 23.5518 74.3951 24.3298 74.9898 25.2443C75.5845 26.1588 76.0025 27.1214 76.2437 28.1322C76.4849 29.1429 76.6055 30.0172 76.6055 30.7551C76.6055 32.6804 76.3321 34.6056 75.7855 36.5308C75.239 38.4561 74.5961 40.1407 73.8569 41.5846C72.7957 43.7342 71.9116 45.1944 71.2046 45.9641C70.4973 46.7342 70.0311 47.1193 69.8058 47.1193C69.6132 47.1193 69.5248 46.959 69.5407 46.638C69.557 46.3174 69.6132 45.9403 69.7095 45.5071C69.8058 45.0739 69.9264 44.6248 70.0709 44.1594C70.2158 43.694 70.3364 43.301 70.4328 42.9804C70.7863 41.8571 71.1644 40.4374 71.5661 38.7206C71.9681 37.0042 72.1691 34.8944 72.1691 32.3916C72.1691 30.6911 71.8069 29.3915 71.0836 28.4933C70.3603 27.5948 69.5972 27.1457 68.7932 27.1457C67.8613 27.1457 66.9609 27.4182 66.0927 27.9639C65.2249 28.5093 64.3647 29.1831 63.5132 29.985C62.661 30.7873 61.8334 31.6696 61.0294 32.6322C60.226 33.5948 59.422 34.4775 58.6187 35.2794C57.815 36.0817 57.0193 36.7556 56.2315 37.3009C55.4437 37.8463 54.6643 38.1192 53.8929 38.1192C52.8961 38.1192 52.213 37.7663 51.8436 37.0603C51.4738 36.3542 51.2649 35.5201 51.2167 34.5575C51.1685 33.5948 51.2167 32.6243 51.3612 31.6457C51.5061 30.6672 51.6263 29.9051 51.7226 29.3597C51.0153 29.8088 50.2761 30.4265 49.5046 31.2125C48.7328 31.9986 47.9375 32.7687 47.1178 33.5228C46.2978 34.2766 45.4539 34.9346 44.5862 35.4962C43.718 36.0575 42.8339 36.3383 41.9339 36.3383C41.5159 36.3383 41.1143 36.2261 40.7282 36.0014C40.3424 35.7767 40.0049 35.4879 39.7155 35.135C39.4261 34.7822 39.1932 34.3892 39.0161 33.956C38.8397 33.5228 38.751 33.0817 38.751 32.6322C38.751 31.2846 38.8397 30.1457 39.0161 29.2153C39.1932 28.2845 39.3859 27.5307 39.5949 26.9611C39.8042 26.3835 40.0049 25.9742 40.1979 25.7176C40.3906 25.469 40.4873 25.3406 40.4873 25.3406C40.9694 24.9555 41.4598 24.6667 41.9578 24.4583C42.4561 24.2498 42.9143 24.2017 43.3323 24.3139C43.7499 24.4261 44.1117 24.7228 44.417 25.1962C44.7223 25.6695 44.9397 26.3835 45.0678 27.3382L44.5862 28.7821C45.1327 28.3326 45.743 27.7873 46.4181 27.1536C47.0932 26.512 47.793 25.9022 48.5162 25.3167C49.2395 24.7312 49.9628 24.2256 50.6861 23.8167C51.4094 23.4074 52.0924 23.1989 52.7353 23.1989Z" fill="#F5E2C3"/>
<path d="M21.4872 37.3008C21.3264 37.3649 20.7882 37.4774 19.8719 37.6377C18.9555 37.798 17.7259 37.8943 16.183 37.9265C14.2862 37.9265 12.4054 37.6298 10.5409 37.0363C8.67635 36.4424 6.99653 35.5761 5.49383 34.4372C3.99076 33.298 2.7691 31.8863 1.82888 30.2017C0.888647 28.5171 0.414551 26.568 0.414551 24.3539C0.414551 21.6908 1.03315 19.2441 2.26277 17.0141C3.50073 14.7842 5.05956 12.7706 6.94039 10.9739C8.8292 9.17673 10.9107 7.59675 13.1932 6.23278C15.4757 4.8692 17.6857 3.73035 19.8237 2.81586C21.9613 1.90137 23.8903 1.21124 25.6103 0.746222C27.33 0.280829 28.56 0.0322137 29.2992 0C29.9102 0.128476 30.4241 0.361173 30.8425 0.69809C31.26 1.03501 31.5415 1.42801 31.686 1.87711C31.8309 2.32659 31.8149 2.81586 31.6378 3.3453C31.4614 3.87474 31.0674 4.37993 30.4567 4.86124C30.0706 5.02155 29.1786 5.30237 27.7805 5.70372C26.3818 6.10469 24.7664 6.66596 22.9338 7.38793C21.1015 8.10989 19.1645 8.98421 17.1232 10.0113C15.0816 11.0379 13.2091 12.2412 11.5054 13.6211C9.80166 15.0006 8.39492 16.5647 7.28592 18.3137C6.17691 20.0623 5.62203 22.0114 5.62203 24.1614C5.62203 26.0544 6.12078 27.6666 7.11714 28.9984C8.11388 30.3301 9.37536 31.4209 10.9027 32.2713C12.4297 33.1214 14.1095 33.7152 15.9418 34.0522C17.7745 34.3891 19.5263 34.4774 21.1978 34.3167C23.4158 34.1242 24.9432 34.084 25.7791 34.1965C26.6146 34.3087 26.9522 34.5172 26.7918 34.8223C26.631 35.127 26.0522 35.4961 25.0554 35.9293C24.0591 36.3624 22.8697 36.8195 21.4872 37.3008Z" fill="#F5E2C3"/>
</svg>
