<svg width="129" height="130" viewBox="0 0 129 130" fill="none" xmlns="http://www.w3.org/2000/svg">
<mask id="mask0_16_5937" style="mask-type:alpha" maskUnits="userSpaceOnUse" x="21" y="18" width="71" height="73">
<path d="M57.5 90.5L33 67L29.5 74V76L29 77L28.5 77.5H27.5L26.5 76.5L21 67V47.5L33 27.5L64.5 18.5L67 24L68.5 25L69 26.5L68.5 27L67 28L64.5 28.8185V37.5L92 60.5L83 81.5L57.5 90.5Z" fill="#D9D9D9"/>
</mask>
<g mask="url(#mask0_16_5937)">
<circle cx="64.4946" cy="64.4126" r="38.5" stroke="#F5E2C3" stroke-width="3"/>
<path d="M81.4946 62.6805C82.828 63.4503 82.828 65.3748 81.4946 66.1446L57.4946 80.0011C56.1613 80.7709 54.4946 79.8086 54.4946 78.269V50.5562C54.4946 49.0166 56.1613 48.0543 57.4946 48.8241L81.4946 62.6805Z" fill="#F5E2C3"/>
</g>
<path d="M116.013 71.5921L120.114 69.0695L120.354 69.703L115.881 72.4217L116.013 71.5921ZM116.86 66.2691L124.077 67.418L123.967 68.1093L116.75 66.9604L116.86 66.2691ZM120.131 67.2718L120.726 67.3665L120.365 69.6339L119.77 69.5393L120.131 67.2718ZM119.946 69.6807L120.158 69.0623L123.254 72.5889L123.133 73.3493L119.946 69.6807Z" fill="#F5E2C3"/>
<path d="M114.748 78.378C114.974 77.7751 115.319 77.2814 115.782 76.897C116.242 76.5213 116.784 76.286 117.408 76.1911C118.037 76.1082 118.71 76.2012 119.426 76.47C120.143 76.7389 120.706 77.1099 121.117 77.5829C121.533 78.068 121.791 78.6034 121.89 79.1889C121.986 79.7832 121.921 80.3818 121.695 80.9847C121.452 81.6314 121.087 82.1524 120.6 82.5477C120.118 82.9551 119.561 83.2046 118.929 83.2962C118.293 83.3966 117.634 83.3189 116.952 83.0632C116.271 82.8074 115.724 82.4326 115.311 81.9388C114.895 81.4537 114.635 80.8976 114.531 80.2706C114.433 79.6555 114.505 79.0247 114.748 78.378ZM113.546 74.0094L122.931 77.5309L122.695 78.16L120.454 77.319L119.3 76.7666L118.058 76.4501L113.3 74.6648L113.546 74.0094ZM115.352 78.56C115.156 79.0844 115.097 79.6005 115.175 80.1085C115.262 80.6197 115.48 81.0753 115.829 81.4752C116.174 81.8838 116.63 82.1947 117.198 82.4078C117.775 82.6242 118.323 82.6904 118.843 82.6064C119.369 82.5344 119.828 82.3329 120.222 82.002C120.624 81.6744 120.923 81.2484 121.12 80.7241C121.317 80.1998 121.371 79.682 121.284 79.1708C121.202 78.6715 120.989 78.2176 120.644 77.809C120.304 77.4124 119.846 77.1059 119.269 76.8895C118.701 76.6763 118.154 76.6058 117.629 76.6778C117.1 76.7585 116.636 76.9583 116.238 77.2772C115.844 77.6081 115.549 78.0357 115.352 78.56Z" fill="#F5E2C3"/>
<path d="M110.412 88.9502L111.843 89.8029L112.074 89.9078L114.432 91.3121C115.017 91.6608 115.557 91.7656 116.053 91.6263C116.544 91.4951 116.971 91.1248 117.334 90.5154C117.592 90.0825 117.757 89.6321 117.829 89.1645C117.905 88.7097 117.905 88.2807 117.83 87.8776L118.442 87.8348C118.537 88.3147 118.529 88.8206 118.418 89.3523C118.316 89.8889 118.121 90.3977 117.835 90.8788C117.371 91.6566 116.819 92.1369 116.178 92.3198C115.537 92.5027 114.827 92.3625 114.049 91.8992L110.068 89.5276L110.412 88.9502ZM111.711 86.6604C111.988 86.1953 112.301 85.8334 112.651 85.5746C113.004 85.3286 113.372 85.1945 113.754 85.1725C114.132 85.1585 114.497 85.2566 114.85 85.4668C115.171 85.6579 115.416 85.902 115.587 86.1992C115.761 86.5092 115.825 86.8843 115.78 87.3246C115.743 87.7697 115.553 88.2809 115.209 88.8583L113.833 91.1676L113.364 90.8881L114.733 88.5909C115.12 87.9414 115.272 87.4127 115.189 87.0048C115.101 86.6049 114.877 86.2975 114.516 86.0825C114.115 85.8437 113.703 85.805 113.281 85.9663C112.859 86.1277 112.484 86.4851 112.154 87.0383C111.839 87.5676 111.694 88.0842 111.719 88.5884C111.74 89.1005 111.927 89.5809 112.279 90.0296L111.769 89.9544C111.413 89.5137 111.22 89.0077 111.191 88.4364C111.165 87.8778 111.338 87.2858 111.711 86.6604Z" fill="#F5E2C3"/>
<path d="M107.36 94.1041L112.716 98.4349L112.429 98.4553L114.348 96.082L114.838 96.4782L110.806 101.464L110.317 101.068L112.236 98.6948L112.276 98.9792L106.919 94.6484L107.36 94.1041Z" fill="#F5E2C3"/>
<path d="M100.042 102.375L104.818 102.985L104.607 103.629L99.4187 102.938L100.042 102.375ZM104.042 98.7626L108.94 104.186L108.421 104.655L103.523 99.2318L104.042 98.7626ZM105.96 101.596L106.363 102.043L104.659 103.582L104.256 103.135L105.96 101.596ZM104.304 103.355L104.857 103.007L105.054 107.696L104.483 108.212L104.304 103.355Z" fill="#F5E2C3"/>
<path d="M95.5216 106.316C96.1176 105.949 96.7333 105.756 97.3686 105.738C97.9959 105.724 98.5955 105.87 99.1673 106.176C99.7311 106.486 100.201 106.947 100.578 107.559C100.96 108.179 101.16 108.807 101.179 109.442C101.194 110.09 101.055 110.691 100.76 111.245C100.458 111.804 100.008 112.267 99.4124 112.634C98.8163 113.001 98.2007 113.194 97.5654 113.213C96.9301 113.231 96.3305 113.085 95.7667 112.775C95.2077 112.472 94.7373 112.011 94.3556 111.391C93.9788 110.779 93.7786 110.152 93.7552 109.508C93.7317 108.865 93.8713 108.264 94.1738 107.705C94.4762 107.146 94.9255 106.683 95.5216 106.316ZM95.8519 106.853C95.3751 107.146 95.012 107.518 94.7627 107.967C94.5182 108.425 94.4111 108.918 94.4412 109.448C94.4713 109.977 94.6455 110.5 94.9636 111.017C95.2866 111.541 95.6753 111.932 96.1297 112.189C96.589 112.455 97.0754 112.577 97.589 112.557C98.1075 112.544 98.6052 112.391 99.082 112.098C99.5588 111.804 99.9195 111.429 100.164 110.971C100.405 110.527 100.515 110.037 100.493 109.503C100.467 108.981 100.293 108.458 99.9703 107.934C99.6522 107.417 99.2635 107.026 98.8043 106.761C98.337 106.5 97.8481 106.374 97.3376 106.382C96.824 106.402 96.3287 106.559 95.8519 106.853Z" fill="#F5E2C3"/>
<path d="M87.2802 111.285C87.9665 111.015 88.6327 110.924 89.2786 111.012C89.9158 111.103 90.4888 111.349 90.9974 111.751C91.4974 112.156 91.8786 112.694 92.1412 113.363C92.4071 114.04 92.5017 114.69 92.4248 115.312C92.3427 115.946 92.1119 116.507 91.7326 116.997C91.3533 117.487 90.8552 117.853 90.2384 118.095C89.6215 118.337 89.0135 118.41 88.4145 118.314C87.8067 118.222 87.2616 117.97 86.779 117.557C86.2911 117.157 85.9142 116.618 85.6482 115.941C85.638 115.915 85.6304 115.883 85.6255 115.844C85.6152 115.818 85.6033 115.788 85.5897 115.753L91.5976 113.395L91.7971 113.904L86.141 116.123L86.3045 115.773C86.5038 116.307 86.8025 116.736 87.2008 117.061C87.5937 117.398 88.0317 117.607 88.5148 117.688C89.0012 117.778 89.5007 117.723 90.0133 117.521C90.5173 117.324 90.9213 117.025 91.2255 116.625C91.5244 116.237 91.7033 115.785 91.7621 115.271C91.8244 114.765 91.7498 114.243 91.5384 113.704L91.4924 113.587C91.2742 113.031 90.9582 112.584 90.5444 112.245C90.1254 111.918 89.6509 111.718 89.1211 111.645C88.5946 111.581 88.0533 111.658 87.4973 111.876C87.0629 112.047 86.6895 112.284 86.3773 112.587C86.0564 112.893 85.8287 113.258 85.6942 113.682L85.1475 113.4C85.2997 112.919 85.5642 112.495 85.941 112.126C86.3125 111.77 86.7589 111.489 87.2802 111.285Z" fill="#F5E2C3"/>
<path d="M77.4111 115.293L78.2263 122.556L75.1655 122.899C74.3679 122.989 73.7195 122.902 73.2203 122.638C72.7212 122.375 72.4378 121.942 72.3701 121.339C72.3035 120.746 72.4802 120.27 72.9003 119.913C73.3112 119.557 73.8737 119.339 74.5879 119.259L74.4165 119.489C73.5632 119.585 72.9194 119.498 72.4852 119.227C72.051 118.957 71.7995 118.515 71.7308 117.903C71.661 117.282 71.8341 116.774 72.2501 116.38C72.6578 115.996 73.3301 115.751 74.2668 115.646L77.4111 115.293ZM76.7934 115.94L74.3448 116.215C73.6677 116.291 73.1654 116.46 72.838 116.722C72.5105 116.984 72.3744 117.361 72.4295 117.853C72.4858 118.354 72.684 118.698 73.0244 118.885C73.3565 119.082 73.8657 119.143 74.5521 119.066L77.112 118.778L76.7934 115.94ZM77.1729 119.321L74.8356 119.583C74.2234 119.652 73.7634 119.821 73.4555 120.09C73.1384 120.361 73.0053 120.723 73.0563 121.178C73.1074 121.632 73.317 121.951 73.6851 122.135C74.0451 122.33 74.5311 122.393 75.1433 122.324L77.4806 122.062L77.1729 119.321Z" fill="#F5E2C3"/>
<path d="M67.904 116.924L67.2567 124.203L66.5594 124.141L67.1113 117.935L61.3719 123.679L60.7583 123.625L61.4057 116.346L62.1029 116.408L61.5511 122.613L67.2905 116.869L67.904 116.924Z" fill="#F5E2C3"/>
<path d="M52.7563 115.486L51.0511 121.594L54.7189 122.618L55.2892 120.888C55.4452 120.398 55.6147 119.913 55.7976 119.431C55.9781 118.958 56.1755 118.528 56.3898 118.143C56.6016 117.766 56.8325 117.476 57.0826 117.275C57.3237 117.071 57.5873 116.994 57.8735 117.045L58.5063 117.382C58.2237 117.283 57.9611 117.321 57.7186 117.496C57.4735 117.68 57.2464 117.955 57.037 118.323C56.8277 118.691 56.6316 119.116 56.4486 119.598C56.2542 120.086 56.0707 120.587 55.8982 121.101L55.1563 123.394L50.2075 122.013L52.0821 115.298L52.7563 115.486ZM59.4714 115.122L58.8165 117.468L50.8741 115.251L51.5291 112.905L52.1629 113.082L51.6735 114.835L58.3348 116.694L58.8242 114.941L59.4714 115.122Z" fill="#F5E2C3"/>
<path d="M45.5728 112.982C46.236 113.305 46.7543 113.733 47.1277 114.267C47.4927 114.797 47.6998 115.385 47.7489 116.032C47.7896 116.674 47.6529 117.319 47.3389 117.965C47.0207 118.62 46.607 119.13 46.0977 119.494C45.576 119.864 45.0065 120.075 44.3893 120.128C43.7721 120.18 43.1655 120.062 42.5695 119.773C41.9734 119.483 41.5076 119.085 41.1721 118.58C40.8282 118.07 40.6443 117.499 40.6204 116.864C40.584 116.234 40.7249 115.592 41.043 114.937C41.0552 114.912 41.0737 114.885 41.0984 114.855C41.1107 114.83 41.1249 114.801 41.1413 114.767L46.9464 117.588L46.7077 118.079L41.2426 115.423L41.6107 115.307C41.3535 115.815 41.2404 116.325 41.2713 116.838C41.2897 117.356 41.4327 117.819 41.7003 118.23C41.9639 118.648 42.3433 118.978 42.8386 119.218C43.3256 119.455 43.8192 119.55 44.3196 119.502C44.8075 119.459 45.2605 119.285 45.6786 118.98C46.0927 118.683 46.4261 118.274 46.679 117.753L46.7341 117.64C46.9951 117.103 47.1101 116.567 47.0789 116.033C47.0353 115.504 46.8608 115.019 46.5552 114.58C46.2456 114.15 45.8222 113.804 45.2849 113.543C44.8651 113.339 44.4381 113.225 44.0037 113.201C43.5609 113.172 43.1381 113.252 42.7353 113.44L42.5721 112.847C43.0288 112.634 43.5203 112.54 44.0466 112.568C44.5604 112.599 45.0691 112.738 45.5728 112.982Z" fill="#F5E2C3"/>
<path d="M37.4081 108.967C37.9727 109.381 38.3832 109.878 38.6397 110.46C38.8887 111.036 38.9794 111.646 38.9118 112.291C38.8367 112.93 38.5867 113.54 38.1618 114.119C37.7314 114.706 37.2255 115.128 36.644 115.385C36.0494 115.643 35.4401 115.74 34.8158 115.676C34.1841 115.607 33.586 115.365 33.0214 114.951C32.4568 114.537 32.0463 114.04 31.7898 113.458C31.5332 112.877 31.4425 112.266 31.5177 111.627C31.5873 110.995 31.8373 110.386 32.2677 109.799C32.6926 109.219 33.1985 108.797 33.7855 108.533C34.3725 108.269 34.9819 108.172 35.6136 108.242C36.2454 108.311 36.8435 108.553 37.4081 108.967ZM37.0356 109.475C36.584 109.144 36.103 108.947 35.5927 108.886C35.0769 108.832 34.5794 108.918 34.1003 109.146C33.6211 109.373 33.2022 109.732 32.8436 110.221C32.4794 110.718 32.2637 111.225 32.1966 111.743C32.1239 112.268 32.1938 112.765 32.4061 113.233C32.613 113.709 32.9422 114.112 33.3938 114.443C33.8455 114.774 34.3292 114.967 34.8451 115.021C35.3478 115.077 35.8426 114.994 36.3292 114.772C36.8028 114.552 37.2217 114.194 37.5859 113.697C37.9446 113.208 38.1602 112.7 38.2329 112.175C38.298 111.644 38.2309 111.144 38.0316 110.674C37.8193 110.206 37.4873 109.806 37.0356 109.475Z" fill="#F5E2C3"/>
<path d="M26.8831 100.515C27.3232 101.059 27.593 101.645 27.6925 102.273C27.7861 102.893 27.7178 103.506 27.4878 104.113C27.2518 104.711 26.8545 105.237 26.2956 105.689C25.7295 106.146 25.1326 106.425 24.5049 106.524C23.864 106.623 23.25 106.561 22.6629 106.339C22.0699 106.111 21.5534 105.724 21.1132 105.18C20.6731 104.636 20.4033 104.05 20.3038 103.422C20.2044 102.794 20.2726 102.181 20.5085 101.582C20.7372 100.989 21.1346 100.464 21.7007 100.006C22.2595 99.554 22.8564 99.2754 23.4914 99.1701C24.1264 99.0648 24.7404 99.1264 25.3334 99.3551C25.9264 99.5838 26.4429 99.9703 26.8831 100.515ZM26.3932 100.911C26.0411 100.475 25.6262 100.163 25.1486 99.9726C24.6637 99.7886 24.1606 99.7453 23.6392 99.8428C23.1179 99.9402 22.6214 100.18 22.1496 100.561C21.6706 100.948 21.3325 101.384 21.1353 101.867C20.9309 102.357 20.8716 102.855 20.9573 103.362C21.0357 103.874 21.251 104.348 21.6031 104.784C21.9552 105.219 22.3737 105.529 22.8586 105.713C23.3304 105.896 23.8299 105.942 24.3571 105.852C24.8711 105.76 25.3677 105.521 25.8467 105.133C26.3184 104.752 26.6565 104.317 26.861 103.827C27.0595 103.331 27.1225 102.83 27.0499 102.324C26.9642 101.817 26.7453 101.346 26.3932 100.911Z" fill="#F5E2C3"/>
<path d="M19.7537 92.1549L13.023 95.0017L12.7503 94.357L15.8191 93.059L13.8885 88.4945L10.8197 89.7925L10.547 89.1478L17.2777 86.301L17.5504 86.9457L14.4558 88.2546L16.3864 92.819L19.481 91.5102L19.7537 92.1549Z" fill="#F5E2C3"/>
<path d="M14.2662 78.1431L12.64 78.5051L12.4001 78.5872L9.72169 79.1834C9.05663 79.3314 8.59156 79.6261 8.32647 80.0676C8.05936 80.5 8.00286 81.0623 8.15697 81.7547C8.26647 82.2467 8.45542 82.6875 8.72383 83.0772C8.98109 83.4597 9.27528 83.7719 9.6064 84.0138L9.19048 84.4649C8.79254 84.1806 8.45125 83.8071 8.16662 83.3446C7.87289 82.8841 7.66519 82.3805 7.54352 81.8339C7.34683 80.9502 7.41896 80.2218 7.75993 79.6487C8.10089 79.0756 8.71323 78.6907 9.59694 78.494L14.1202 77.4872L14.2662 78.1431ZM14.8927 80.7001C15.0104 81.2285 15.0308 81.7068 14.954 82.1351C14.866 82.5562 14.6905 82.9061 14.4274 83.1846C14.1623 83.4539 13.8293 83.6332 13.4284 83.7224C13.064 83.8036 12.7178 83.7946 12.3897 83.6955C12.0506 83.5893 11.7463 83.3606 11.4769 83.0094C11.1984 82.6602 10.9861 82.1577 10.8401 81.5017L10.2561 78.8779L10.7891 78.7593L11.37 81.3695C11.5343 82.1074 11.7865 82.5963 12.1267 82.8361C12.4649 83.0668 12.839 83.1365 13.249 83.0453C13.7045 82.9439 14.0304 82.6897 14.2267 82.2826C14.4229 81.8756 14.4511 81.3578 14.3112 80.7292C14.1773 80.1279 13.9281 79.6527 13.5636 79.3035C13.197 78.9453 12.7317 78.7237 12.1678 78.6389L12.5899 78.3442C13.1518 78.4199 13.6393 78.6556 14.0524 79.0513C14.4545 79.4399 14.7346 79.9895 14.8927 80.7001Z" fill="#F5E2C3"/>
<path d="M11.6425 68.8099L11.8452 68.9867L4.94937 68.6938L4.97908 67.9944L11.8749 68.2873L11.6561 68.4882L11.8368 64.236L12.0382 64.4408L5.14246 64.1479L5.17217 63.4485L12.4736 63.7586L12.0565 73.5778L4.75509 73.2677L4.7848 72.5683L11.6806 72.8612L11.4624 73.0481L11.6425 68.8099Z" fill="#F5E2C3"/>
<path d="M12.8932 57.0344C12.7302 57.7535 12.4311 58.3556 11.9958 58.8408C11.5626 59.3168 11.0368 59.6522 10.4184 59.8471C9.80216 60.0328 9.14357 60.0463 8.44267 59.8875C7.73267 59.7266 7.14214 59.4397 6.67109 59.0267C6.193 58.6026 5.85798 58.096 5.66606 57.507C5.47413 56.9181 5.45139 56.3004 5.59782 55.6541C5.74426 55.0079 6.02542 54.4639 6.4413 54.0222C6.85925 53.5714 7.3743 53.2622 7.98646 53.0947C8.59157 52.916 9.24913 52.9071 9.95913 53.068C9.98644 53.0742 10.0173 53.0859 10.0516 53.1033C10.0789 53.1095 10.1108 53.1167 10.1472 53.1249L8.72099 59.4194L8.18849 59.2987L9.53116 53.3729L9.72871 53.7048C9.17551 53.5699 8.65261 53.5758 8.16 53.7226C7.66035 53.8582 7.24123 54.103 6.90265 54.4569C6.55496 54.8088 6.32028 55.2532 6.19859 55.7903C6.07897 56.3182 6.09916 56.8204 6.25916 57.2969C6.41211 57.7622 6.68479 58.1637 7.0772 58.5015C7.4605 58.8371 7.93433 59.0689 8.49869 59.1968L8.62157 59.2246C9.20414 59.3566 9.75186 59.3467 10.2647 59.195C10.7706 59.0321 11.2025 58.7519 11.5605 58.3545C11.9094 57.9551 12.1498 57.4641 12.2818 56.8815C12.385 56.4264 12.3989 55.9846 12.3238 55.556C12.2507 55.1184 12.0767 54.7249 11.8018 54.3755L12.342 54.0816C12.6542 54.4777 12.8568 54.9351 12.9498 55.4538C13.0358 55.9614 13.0169 56.4882 12.8932 57.0344Z" fill="#F5E2C3"/>
<path d="M13.7067 50.4575L7.0526 47.436L7.34202 46.7986L13.0146 49.3744L9.4953 42.0566L9.74999 41.4957L16.4041 44.5172L16.1147 45.1546L10.4421 42.5788L13.9614 49.8966L13.7067 50.4575ZM7.36993 44.0283C7.13453 44.5467 6.80369 44.9141 6.37739 45.1305C5.94645 45.3346 5.48067 45.3332 4.98005 45.1264L5.19422 44.6548C5.55037 44.796 5.88638 44.7897 6.20224 44.6358C6.52197 44.4735 6.76673 44.2054 6.93652 43.8315C7.10631 43.4575 7.14518 43.101 7.05313 42.762C6.96495 42.4144 6.74857 42.1573 6.404 41.9906L6.62396 41.5062C7.11299 41.7385 7.42056 42.0883 7.54664 42.5556C7.66809 43.0105 7.60918 43.5014 7.36993 44.0283Z" fill="#F5E2C3"/>
<path d="M19.1809 37.1612L13.7042 32.3226L14.1584 31.8085L20.781 33.0453L20.5771 33.2761L18.5428 26.8458L18.9692 26.3632L24.4459 31.2018L24.0195 31.6845L19.1723 27.402L19.3069 27.3342L21.2124 33.4451L20.9992 33.6864L14.6593 32.5313L14.7496 32.3868L19.6073 36.6786L19.1809 37.1612Z" fill="#F5E2C3"/>
<path d="M30.2322 25.2081L29.1989 23.9012L29.0207 23.7209L27.3188 21.5684C26.8962 21.034 26.4285 20.7434 25.9157 20.6967C25.4102 20.6443 24.8792 20.838 24.3228 21.278C23.9275 21.5906 23.6127 21.9524 23.3786 22.3636C23.146 22.7617 22.9929 23.1624 22.9191 23.5657L22.332 23.3875C22.4149 22.9055 22.6027 22.4357 22.8954 21.9782C23.1823 21.5134 23.5454 21.1074 23.9847 20.76C24.6949 20.1985 25.3821 19.9466 26.0465 20.0044C26.7108 20.0621 27.3238 20.4461 27.8853 21.1562L30.7593 24.7913L30.2322 25.2081ZM28.2023 26.8844C27.7777 27.2202 27.3559 27.4466 26.9368 27.5637C26.5194 27.6677 26.128 27.6619 25.7628 27.5461C25.4049 27.4245 25.0986 27.2026 24.8439 26.8805C24.6124 26.5877 24.4699 26.272 24.4164 25.9335C24.3645 25.5819 24.4381 25.2084 24.6371 24.8131C24.8304 24.4104 25.1906 24.0007 25.7177 23.5839L27.8262 21.9168L28.1649 22.3451L26.0673 24.0036C25.4743 24.4724 25.1438 24.9122 25.0759 25.3229C25.0152 25.7278 25.1152 26.0949 25.3757 26.4244C25.6651 26.7905 26.0358 26.9733 26.4876 26.973C26.9395 26.9727 27.418 26.7728 27.9232 26.3734C28.4064 25.9913 28.7259 25.5602 28.8817 25.0801C29.0448 24.5942 29.0419 24.0789 28.8731 23.5342L29.322 23.786C29.4982 24.3249 29.4981 24.8664 29.3215 25.4106C29.1464 25.9416 28.7734 26.4329 28.2023 26.8844Z" fill="#F5E2C3"/>
<path d="M36.2047 20.6987C35.5849 21.0436 34.9531 21.2135 34.3095 21.2085C33.674 21.199 33.0774 21.029 32.5197 20.6985C31.9701 20.3634 31.5205 19.8819 31.1711 19.2539C30.8171 18.6178 30.6426 17.9779 30.6476 17.3343C30.6608 16.6861 30.8331 16.0935 31.1645 15.5566C31.4995 15.007 31.977 14.5598 32.5968 14.2149C33.1106 13.929 33.6299 13.7682 34.1548 13.7324C34.6878 13.6922 35.1937 13.7952 35.6725 14.0414L35.4037 14.6236C34.9938 14.4245 34.5745 14.3427 34.1457 14.3784C33.7169 14.414 33.3027 14.543 32.9031 14.7654C32.4056 15.0422 32.0206 15.406 31.748 15.8568C31.4791 16.2948 31.3439 16.7812 31.3425 17.3161C31.3446 17.8383 31.4955 18.3685 31.795 18.9068C32.0945 19.445 32.4679 19.8568 32.915 20.142C33.3657 20.4146 33.8503 20.5561 34.3689 20.5667C34.8911 20.5645 35.4009 20.425 35.8984 20.1481C36.298 19.9258 36.626 19.6418 36.8823 19.2962C37.1386 18.9507 37.2902 18.5512 37.337 18.0979L37.9734 18.1764C37.9303 18.7131 37.7511 19.1973 37.436 19.629C37.1289 20.0562 36.7185 20.4127 36.2047 20.6987Z" fill="#F5E2C3"/>
<path d="M42.2208 17.2477L39.7527 10.8171L40.0109 10.9429L37.1616 12.0365L36.9358 11.4483L42.9221 9.15078L43.1478 9.73895L40.2985 10.8325L40.4062 10.5663L42.8743 16.9969L42.2208 17.2477Z" fill="#F5E2C3"/>
<path d="M50.7111 14.1351C49.9863 14.2705 49.315 14.2345 48.6971 14.0271C48.0883 13.8179 47.572 13.4681 47.1481 12.9776C46.7333 12.4854 46.4599 11.8861 46.328 11.1796C46.1943 10.464 46.2237 9.80812 46.4162 9.21198C46.6162 8.60495 46.9485 8.09663 47.4132 7.68701C47.8779 7.2774 48.4359 7.01176 49.0873 6.89009C49.7387 6.76842 50.3496 6.81099 50.9199 7.01779C51.4994 7.22288 51.9874 7.57324 52.3838 8.06889C52.7877 8.55364 53.0564 9.15383 53.1901 9.86946C53.1952 9.89698 53.1966 9.92995 53.1943 9.96836C53.1995 9.99589 53.2055 10.028 53.2123 10.0647L46.868 11.2497L46.7678 10.7129L52.7405 9.59738L52.5141 9.91027C52.4187 9.3489 52.2061 8.87116 51.8761 8.47704C51.5536 8.07203 51.1628 7.78423 50.7037 7.61363C50.2428 7.43385 49.7417 7.39451 49.2004 7.49562C48.6683 7.59501 48.2152 7.81256 47.8412 8.14828C47.4746 8.47311 47.214 8.88258 47.0594 9.37669C46.9031 9.86163 46.8781 10.3885 46.9843 10.9573L47.0075 11.0812C47.1171 11.6684 47.3433 12.1673 47.6858 12.5781C48.0359 12.978 48.4642 13.2635 48.971 13.4347C49.476 13.5967 50.0221 13.6229 50.6092 13.5133C51.068 13.4276 51.4792 13.2653 51.8428 13.0265C52.2157 12.7859 52.508 12.4702 52.7198 12.0794L53.2038 12.459C52.9638 12.9026 52.6241 13.2698 52.1847 13.5608C51.7528 13.8409 51.2616 14.0323 50.7111 14.1351Z" fill="#F5E2C3"/>
<path d="M60.569 12.401C59.9251 12.3911 59.3441 12.2327 58.8261 11.926C58.3174 11.6195 57.9134 11.1885 57.6139 10.6332C57.3239 10.0686 57.1849 9.40374 57.1967 8.6385C57.2085 7.87326 57.368 7.21764 57.6751 6.67165C57.9917 6.11647 58.409 5.69353 58.9268 5.40282C59.4541 5.11226 60.0396 4.97195 60.6835 4.9819C61.3741 4.99256 61.9876 5.16072 62.524 5.48637C63.0698 5.80284 63.4924 6.24341 63.7917 6.8081C64.1004 7.37294 64.2491 8.01931 64.2378 8.74722C64.2266 9.47514 64.058 10.1166 63.7321 10.6716C63.4155 11.2268 62.9794 11.6588 62.4239 11.9676C61.8779 12.2672 61.2596 12.4117 60.569 12.401ZM56.8604 15.0041L57.0151 4.98126L57.687 4.99163L57.6501 7.38535L57.5184 8.65747L57.6387 9.93348L57.5603 15.0149L56.8604 15.0041ZM60.5367 11.7704C61.0967 11.7791 61.6025 11.6609 62.0544 11.4158C62.5064 11.1614 62.8619 10.8029 63.1211 10.3402C63.3896 9.87759 63.5286 9.34301 63.5379 8.73641C63.5474 8.12049 63.4251 7.58187 63.1708 7.12055C62.9261 6.65005 62.5816 6.28536 62.1376 6.02647C61.6937 5.75825 61.1918 5.61982 60.6318 5.61117C60.0719 5.60253 59.5659 5.7254 59.114 5.97978C58.6714 6.22498 58.3159 6.57887 58.0474 7.04144C57.7884 7.49483 57.6541 8.02949 57.6446 8.64541C57.6353 9.25201 57.753 9.79056 57.9977 10.2611C58.2518 10.7317 58.5962 11.1011 59.0307 11.3691C59.4748 11.628 59.9768 11.7618 60.5367 11.7704Z" fill="#F5E2C3"/>
<path d="M70.2921 12.6722C69.5938 12.5473 68.997 12.2794 68.5016 11.8684C68.0155 11.4591 67.6609 10.95 67.4379 10.3413C67.2242 9.73413 67.1805 9.07685 67.3071 8.36941C67.4353 7.65279 67.7048 7.04678 68.1158 6.55141C68.536 6.05768 69.0442 5.7077 69.6405 5.50147C70.2476 5.2877 70.9003 5.24326 71.5986 5.36816C72.1774 5.47169 72.6814 5.67561 73.1105 5.97993C73.5488 6.28588 73.8755 6.68566 74.0906 7.17924L73.5142 7.46013C73.3226 7.04662 73.0496 6.71807 72.6949 6.47448C72.3403 6.2309 71.9378 6.06884 71.4876 5.98831C70.9272 5.88807 70.3989 5.92631 69.9027 6.10303C69.4173 6.27221 69.0049 6.56348 68.6655 6.97684C68.3369 7.38266 68.1184 7.88875 68.0099 8.49513C67.9015 9.10151 67.9302 9.65657 68.0961 10.1603C68.2728 10.6565 68.5586 11.0727 68.9536 11.4088C69.3594 11.7374 69.8426 11.9518 70.403 12.0521C70.8532 12.1326 71.2868 12.1201 71.7039 12.0146C72.121 11.909 72.4911 11.6955 72.8141 11.374L73.2574 11.8373C72.8845 12.2257 72.4395 12.4875 71.9223 12.6225C71.4143 12.7592 70.8709 12.7758 70.2921 12.6722Z" fill="#F5E2C3"/>
<path d="M80.5467 14.9234L78.7927 10.439L79.4587 10.3159L81.3396 15.2007L80.5467 14.9234ZM75.4588 13.1441L77.8713 6.24574L78.5321 6.47682L76.1196 13.3752L75.4588 13.1441ZM77.0266 10.1031L77.2253 9.53488L79.3926 10.2928L79.1939 10.8611L77.0266 10.1031ZM79.3643 10.713L78.7934 10.3947L82.8138 7.9742L83.5406 8.22839L79.3643 10.713Z" fill="#F5E2C3"/>
<path d="M86.28 17.0265C85.6721 16.6794 85.2078 16.2315 84.8869 15.6829C84.5742 15.1389 84.4149 14.5428 84.4089 13.8945C84.411 13.2508 84.5903 12.6169 84.9466 11.9929C85.3076 11.3607 85.7625 10.8842 86.3111 10.5633C86.8725 10.239 87.4669 10.0733 88.0943 10.0662C88.7299 10.0637 89.3516 10.236 89.9595 10.5831C90.5673 10.9302 91.0317 11.3781 91.3525 11.9267C91.6733 12.4754 91.8327 13.0715 91.8306 13.7152C91.8331 14.3507 91.6538 14.9846 91.2928 15.6168C90.9365 16.2409 90.4816 16.7174 89.9284 17.0463C89.3751 17.3752 88.7807 17.541 88.1451 17.5435C87.5096 17.546 86.8879 17.3737 86.28 17.0265ZM86.5924 16.4795C87.0787 16.7572 87.5789 16.8977 88.0929 16.901C88.6115 16.8962 89.0959 16.7537 89.5462 16.4734C89.9964 16.1931 90.372 15.7895 90.6728 15.2627C90.9783 14.7278 91.135 14.1993 91.1429 13.6772C91.1555 13.1469 91.0297 12.6613 90.7657 12.2204C90.5062 11.7713 90.1333 11.4079 89.647 11.1302C89.1607 10.8525 88.6583 10.716 88.1397 10.7208C87.6338 10.7221 87.1516 10.8606 86.6933 11.1363C86.2477 11.4084 85.8721 11.812 85.5667 12.3469C85.2658 12.8737 85.1091 13.4023 85.0965 13.9325C85.0921 14.4673 85.2155 14.957 85.4668 15.4014C85.7309 15.8424 86.1061 16.2018 86.5924 16.4795Z" fill="#F5E2C3"/>
<path d="M92.3155 19.6871L97.1141 14.1753L97.6421 14.6349L93.5513 19.3337L101.57 18.0547L102.035 18.4592L97.236 23.9709L96.708 23.5113L100.799 18.8126L92.7801 20.0916L92.3155 19.6871ZM100.289 15.4541C99.8593 15.0803 99.6019 14.6582 99.5164 14.1878C99.4441 13.7164 99.5786 13.2705 99.92 12.85L100.311 13.1901C100.074 13.491 99.9834 13.8148 100.04 14.1614C100.105 14.5142 100.292 14.8255 100.601 15.0951C100.911 15.3648 101.241 15.504 101.593 15.5128C101.951 15.5277 102.259 15.3939 102.518 15.1114L102.919 15.4607C102.556 15.8629 102.133 16.0576 101.649 16.0447C101.179 16.031 100.725 15.8341 100.289 15.4541Z" fill="#F5E2C3"/>
</svg>
